<svg width="40" height="40" viewBox="0 0 40 40" fill="none" xmlns="http://www.w3.org/2000/svg">
<g id="Group 150">
<rect id="Rectangle 67" width="40" height="40" rx="20" fill="#5E2727" fill-opacity="0.1"/>
<path id="Vector" d="M20.1306 13C17.047 13 14 15.0555 14 18.3824C14 20.498 15.1901 21.7001 15.9113 21.7001C16.2089 21.7001 16.3801 20.8707 16.3801 20.6365C16.3801 20.3572 15.668 19.7619 15.668 18.5988C15.668 16.1826 17.5072 14.4694 19.8873 14.4694C21.9337 14.4694 23.4483 15.6325 23.4483 17.7693C23.4483 19.3652 22.8083 22.3584 20.7345 22.3584C19.9863 22.3584 19.3459 21.8174 19.3459 21.0423C19.3459 19.9061 20.1392 18.8065 20.1392 17.6342C20.1392 15.645 17.3172 16.0057 17.3172 18.4098C17.3172 18.9147 17.3802 19.4734 17.6057 19.9335C17.1908 21.7189 16.3436 24.3783 16.3436 26.2175C16.3436 26.7854 16.4248 27.3446 16.4787 27.9124C16.5806 28.0269 16.5296 28.0148 16.6859 27.9576C18.2005 25.8838 18.1467 25.4785 18.8318 22.7647C19.2016 23.4681 20.157 23.8465 20.9143 23.8465C24.1056 23.8465 25.5394 20.7361 25.5394 17.9323C25.5394 14.9483 22.9612 13 20.1306 13Z" fill="#5E2727"/>
</g>
</svg>
