<svg width="50" height="58" viewBox="0 0 50 58" fill="none" xmlns="http://www.w3.org/2000/svg">
<g id="Group 21">
<g id="Group">
<g id="Group 1000004685">
<path id="Vector" d="M7.36781 18.1251L8.93929 21.3735L12.5041 21.8587C13.2108 21.9536 13.4639 22.829 12.9787 23.293L10.3737 25.7926L11.017 29.3364C11.1436 30.0325 10.4053 30.5598 9.79359 30.2223L6.61898 28.5137L3.44437 30.2223C2.83265 30.5493 2.06273 30.043 2.23148 29.2837L2.86429 25.7821L0.259212 23.2825C-0.247038 22.7973 0.0271812 21.9325 0.744369 21.8376L4.29867 21.3524L5.87015 18.104C6.16546 17.4817 7.07249 17.4922 7.36781 18.1251ZM7.62093 22.5126L6.61898 20.4243L5.60648 22.5126C5.49046 22.7551 5.24788 22.945 4.96312 22.9872L2.67445 23.293L4.3514 24.8962C4.54124 25.086 4.64671 25.3602 4.59398 25.645L4.18265 27.9231L6.20765 26.8368C6.45023 26.7102 6.75609 26.6891 7.00921 26.8368L9.04476 27.9337L8.64398 25.6977C8.5807 25.4235 8.65453 25.1176 8.87601 24.8962L10.553 23.293L8.28538 22.9872C8.01117 22.9555 7.74749 22.7762 7.62093 22.5126ZM25.3186 10.4786L26.8901 13.727L30.4655 14.2122C31.1721 14.3071 31.4252 15.1825 30.9401 15.6571L28.335 18.1567L28.9784 21.7004C29.1049 22.3965 28.3666 22.9239 27.7549 22.5864L24.5592 20.8778L21.3846 22.5864C20.7729 22.9133 20.003 22.4071 20.1717 21.6477L20.8045 18.1462L18.1889 15.6465C17.6826 15.1614 17.9569 14.2965 18.6741 14.2016L22.2284 13.7165L23.7998 10.4786C24.1162 9.83521 25.0127 9.84576 25.3186 10.4786ZM25.5717 14.8661L24.5592 12.7778L23.5573 14.8661C23.4412 15.1087 23.1987 15.2985 22.9139 15.3407L20.6147 15.6465L22.2916 17.2497C22.492 17.4395 22.5869 17.7137 22.5342 17.9985L22.1229 20.2766L24.1584 19.1903C24.401 19.0637 24.6963 19.0426 24.96 19.1903L26.9955 20.2872L26.5948 18.0512C26.5315 17.777 26.6053 17.4711 26.8268 17.2497L28.5037 15.6465L26.2362 15.3301C25.9514 15.309 25.6983 15.1297 25.5717 14.8661ZM43.2588 18.1251L44.8303 21.3735L48.3951 21.8587C49.1018 21.9536 49.3655 22.829 48.8698 23.293L46.2647 25.7926L46.908 29.3364C47.0346 30.0325 46.2963 30.5598 45.6846 30.2223L42.51 28.5137L39.3354 30.2223C38.7237 30.5493 37.9537 30.043 38.1119 29.2837L38.7448 25.7821L36.1397 23.2825C35.6334 22.7973 35.9076 21.9325 36.6248 21.8376L40.1791 21.3524L41.7506 18.104C42.0565 17.4817 42.9635 17.4922 43.2588 18.1251ZM43.5119 22.5126L42.51 20.4243L41.4975 22.5126C41.3815 22.7551 41.1494 22.945 40.8541 22.9872L38.5655 23.293L40.2319 24.8962C40.4217 25.086 40.5272 25.3602 40.4744 25.645L40.0631 27.9231L42.0987 26.8368C42.3412 26.7102 42.6471 26.6891 42.9002 26.8368L44.9463 27.9337L44.5455 25.6977C44.4823 25.4235 44.5561 25.1176 44.7776 24.8962L46.444 23.293L44.1764 22.9872C43.9022 22.9555 43.6385 22.7762 43.5119 22.5126ZM20.6463 39.6618C20.4143 39.261 20.5514 38.7442 20.9522 38.5122C21.353 38.2801 21.8698 38.4172 22.1018 38.818L23.2092 40.7376L27.1432 36.8036C27.4701 36.4766 28.008 36.4766 28.335 36.8036C28.6619 37.1305 28.6619 37.6684 28.335 37.9954L23.6205 42.7098C23.2303 43.1001 22.5764 43.0157 22.3022 42.5411L20.6463 39.6618ZM24.5592 30.7497C29.1471 30.7497 32.8701 34.4727 32.8701 39.0606C32.8701 43.6485 29.1471 47.3715 24.5592 47.3715C19.9713 47.3715 16.2483 43.6485 16.2483 39.0606C16.2483 34.4727 19.9713 30.7497 24.5592 30.7497ZM29.242 34.3778C26.658 31.7938 22.4604 31.7938 19.8764 34.3778C17.2924 36.9618 17.2924 41.1594 19.8764 43.7434C22.4604 46.3274 26.658 46.3274 29.242 43.7434C31.826 41.1489 31.826 36.9618 29.242 34.3778ZM24.5592 25.529C32.0264 25.529 38.0803 31.5829 38.0803 39.0501C38.0803 41.8766 37.2155 44.5028 35.7284 46.6754L39.7678 53.668C40.158 54.3219 39.6202 55.0602 38.9241 54.9547L34.7897 54.3008L32.5748 57.0219C32.1846 57.5282 31.4569 57.4438 31.1721 56.9376L28.3455 52.0438C25.8776 52.761 23.2303 52.761 20.7729 52.0438L17.9463 56.9376C17.6616 57.4438 16.9338 57.5282 16.5436 57.0219L14.3287 54.3008L10.1944 54.9547C9.48773 55.0708 8.99203 54.3008 9.32952 53.6997L13.3901 46.6754C9.71976 41.3071 10.4053 34.0825 15.0037 29.484C17.4401 27.0477 20.8256 25.529 24.5592 25.529ZM34.6104 48.0993C33.3237 49.5336 31.7416 50.6833 29.9487 51.4637L32.0159 55.0391L33.7877 52.8665C33.9881 52.6133 34.294 52.5184 34.5893 52.5712L37.4369 53.0247L34.6104 48.0993ZM19.1592 51.4637C17.3768 50.6833 15.7948 49.5336 14.508 48.1098L11.6709 53.0247L14.5186 52.5712C14.8034 52.5184 15.1198 52.6239 15.3201 52.8665L17.092 55.0391L19.1592 51.4637ZM32.9334 30.6864C28.3139 26.0669 20.8151 26.0669 16.1955 30.6864C11.576 35.3059 11.576 42.8047 16.1955 47.4243C20.8256 52.0438 28.3139 52.0438 32.9334 47.4243C37.553 42.8047 37.553 35.3059 32.9334 30.6864Z" fill="#5E2727"/>
<circle id="Ellipse 38" cx="21.5" cy="21.5" r="21.5" fill="#5E2727" fill-opacity="0.1"/>
</g>
</g>
</g>
</svg>
