<svg width="43" height="52" viewBox="0 0 43 52" fill="none" xmlns="http://www.w3.org/2000/svg">
<g id="Group 1000004688">
<g id="Group">
<path id="Vector" d="M36.7785 34.843C36.7777 34.038 36.4575 33.2663 35.8883 32.697C35.319 32.1278 34.5473 31.8076 33.7423 31.8067H24.5539C25.8229 28.7313 25.8275 25.2795 24.5668 22.2008C24.5558 22.1737 24.5431 22.1474 24.5289 22.1219C24.2698 21.6557 23.8857 21.271 23.4198 21.0111C22.9539 20.7513 22.4248 20.6266 21.8919 20.6511C21.3591 20.6756 20.8436 20.8483 20.4035 21.1498C19.9635 21.4512 19.6162 21.8695 19.401 22.3576C19.367 22.4347 19.3466 22.517 19.3406 22.6011L19.1238 25.6803C18.7991 27.4499 17.8442 29.042 16.436 30.1617C15.8719 30.3597 14.8392 31.0601 12.1451 33.6236V33.5471C12.1447 33.1434 11.9841 32.7565 11.6987 32.4711C11.4133 32.1857 11.0264 32.0252 10.6227 32.0248H2.95954C2.55594 32.0252 2.169 32.1857 1.88361 32.4711C1.59822 32.7565 1.43771 33.1435 1.4373 33.5471V48.8397C1.43759 49.2434 1.59805 49.6304 1.88345 49.9159C2.16885 50.2014 2.55587 50.362 2.95954 50.3624H10.6223C11.0259 50.362 11.4129 50.2015 11.6983 49.9161C11.9837 49.6307 12.1442 49.2438 12.1446 48.8402V48.7731C14.2518 49.2379 15.3516 49.7903 16.6344 50.982C17.1388 51.4618 17.8105 51.7256 18.5066 51.7174H30.3844C30.9608 51.7176 31.5253 51.5537 32.0119 51.2448C32.4985 50.9359 32.8871 50.4948 33.1322 49.9731C33.3773 49.4515 33.4688 48.8708 33.396 48.299C33.3231 47.7273 33.089 47.1881 32.7209 46.7445C33.6688 46.1744 34.3432 45.1535 34.3432 44.0689C34.3439 43.3941 34.1187 42.7385 33.7035 42.2066C34.6691 41.6347 35.3618 40.5791 35.3618 39.4562C35.3625 38.8231 35.1643 38.2058 34.7951 37.6916C35.3768 37.4758 35.8786 37.0872 36.2331 36.5781C36.5876 36.0689 36.778 35.4635 36.7785 34.843ZM10.6847 48.84C10.6841 48.8563 10.6773 48.8718 10.6657 48.8834C10.6542 48.895 10.6386 48.9017 10.6223 48.9023H2.95954C2.9432 48.9017 2.92769 48.895 2.91613 48.8834C2.90457 48.8718 2.89781 48.8563 2.89722 48.84V33.5473C2.89783 33.531 2.90459 33.5155 2.91615 33.5039C2.92771 33.4924 2.94321 33.4856 2.95954 33.485H10.6223C10.6386 33.4856 10.6541 33.4924 10.6657 33.5039C10.6773 33.5155 10.6841 33.531 10.6847 33.5473V48.84ZM33.7423 36.4193H31.2052C31.0116 36.4193 30.826 36.4962 30.6891 36.6331C30.5522 36.77 30.4753 36.9556 30.4753 37.1492C30.4753 37.3428 30.5522 37.5285 30.6891 37.6654C30.826 37.8023 31.0116 37.8792 31.2052 37.8792H32.3255C32.7434 37.8798 33.144 38.046 33.4395 38.3415C33.735 38.637 33.9013 39.0376 33.9019 39.4555C33.9019 40.2767 33.0903 41.1122 32.2575 41.1843C31.9508 41.0831 31.6299 41.0317 31.307 41.032C31.1134 41.032 30.9277 41.1089 30.7908 41.2458C30.6539 41.3827 30.577 41.5683 30.577 41.7619C30.577 41.9555 30.6539 42.1412 30.7908 42.2781C30.9277 42.415 31.1134 42.4919 31.307 42.4919C31.4915 42.4917 31.6747 42.5241 31.848 42.5875C31.8673 42.596 31.8868 42.6037 31.9069 42.6104C32.1955 42.7296 32.4424 42.9318 32.6161 43.1913C32.7899 43.4507 32.8829 43.7559 32.8832 44.0682C32.8832 44.873 32.0394 45.6924 31.1802 45.7504C30.9208 45.68 30.6531 45.6444 30.3843 45.6446C30.1907 45.6446 30.005 45.7215 29.8681 45.8584C29.7312 45.9953 29.6543 46.1809 29.6543 46.3745C29.6543 46.5681 29.7312 46.7538 29.8681 46.8907C30.005 47.0276 30.1907 47.1045 30.3843 47.1045C30.5372 47.1044 30.6892 47.1266 30.8357 47.1704C30.8529 47.1766 30.8705 47.1822 30.8884 47.1872C31.2427 47.3066 31.5431 47.5481 31.7358 47.8685C31.9285 48.1889 32.0011 48.5674 31.9405 48.9364C31.8799 49.3054 31.6902 49.6408 31.4051 49.8828C31.1201 50.1248 30.7583 50.2576 30.3844 50.2575H18.5066C18.3446 50.2611 18.1834 50.2325 18.0326 50.1732C17.8818 50.114 17.7442 50.0253 17.628 49.9124C16.0777 48.4721 14.7227 47.8164 12.1446 47.28V35.6505L12.2741 35.5245C15.8569 32.0451 16.7346 31.5933 16.9209 31.5385C17.0291 31.5162 17.1309 31.4697 17.2186 31.4025C18.9829 30.0511 20.1776 28.0884 20.5678 25.9005C20.5723 25.8749 20.5756 25.849 20.5775 25.8231L20.7873 22.8444C20.9059 22.626 21.0802 22.4429 21.2926 22.3137C21.5049 22.1845 21.7477 22.114 21.9962 22.1091C22.2447 22.1043 22.49 22.1654 22.7072 22.2862C22.9244 22.4071 23.1057 22.5833 23.2327 22.797C23.8423 24.304 24.1159 25.9258 24.0344 27.5494C23.9529 29.1729 23.5184 30.7592 22.7611 32.1976C22.7026 32.3089 22.6739 32.4333 22.6777 32.559C22.6814 32.6846 22.7176 32.8071 22.7826 32.9146C22.8476 33.0222 22.9392 33.1111 23.0487 33.1729C23.1581 33.2346 23.2817 33.267 23.4073 33.267H33.7423C34.1583 33.2702 34.5562 33.4377 34.8492 33.733C35.1423 34.0282 35.3067 34.4274 35.3067 34.8434C35.3067 35.2594 35.1423 35.6586 34.8492 35.9539C34.5562 36.2492 34.1583 36.4167 33.7423 36.4198V36.4193ZM8.21023 35.8827V35.9708C8.21023 36.1644 8.13332 36.3501 7.99643 36.487C7.85953 36.6239 7.67387 36.7008 7.48027 36.7008C7.28667 36.7008 7.101 36.6239 6.96411 36.487C6.82722 36.3501 6.75031 36.1644 6.75031 35.9708V35.8827C6.75031 35.6891 6.82722 35.5035 6.96411 35.3666C7.101 35.2297 7.28667 35.1528 7.48027 35.1528C7.67387 35.1528 7.85953 35.2297 7.99643 35.3666C8.13332 35.5035 8.21023 35.6891 8.21023 35.8827ZM30.1136 11.2578C30.0695 11.1223 29.9868 11.0026 29.8757 10.9136C29.7645 10.8245 29.6296 10.7699 29.4878 10.7566L24.2559 10.2638L22.1701 5.44026C22.1135 5.3095 22.02 5.19815 21.9009 5.11991C21.7818 5.04168 21.6425 5 21.5 5C21.3576 5 21.2182 5.04168 21.0992 5.11991C20.9801 5.19815 20.8866 5.3095 20.83 5.44026L18.7445 10.2637L13.5127 10.7565C13.3708 10.7698 13.236 10.8244 13.1248 10.9135C13.0136 11.0025 12.931 11.1222 12.8869 11.2576C12.8429 11.3931 12.8395 11.5385 12.8771 11.6759C12.9147 11.8133 12.9917 11.9367 13.0986 12.0309L17.0415 15.5048L15.8935 20.6327C15.8624 20.7717 15.8726 20.9168 15.923 21.0501C15.9733 21.1833 16.0615 21.299 16.1768 21.3827C16.292 21.4664 16.4293 21.5146 16.5716 21.5213C16.7138 21.528 16.855 21.4929 16.9776 21.4203L21.5 18.744L26.0223 21.4205C26.1449 21.4931 26.2861 21.5282 26.4284 21.5215C26.5707 21.5148 26.7079 21.4666 26.8231 21.3829C26.9384 21.2991 27.0266 21.1835 27.0769 21.0503C27.1273 20.917 27.1375 20.7719 27.1064 20.6329L25.9585 15.5049L29.9014 12.0311C30.0084 11.9369 30.0855 11.8136 30.1232 11.6762C30.1609 11.5387 30.1575 11.3933 30.1136 11.2578ZM24.6696 14.695C24.5715 14.7815 24.4984 14.8928 24.458 15.0172C24.4175 15.1416 24.4113 15.2746 24.4399 15.4022L25.3134 19.3043L21.8723 17.2676C21.7597 17.201 21.6313 17.1658 21.5005 17.1658C21.3697 17.1658 21.2413 17.201 21.1287 17.2676L17.6876 19.3043L18.5607 15.4019C18.5893 15.2743 18.583 15.1413 18.5426 15.0169C18.5022 14.8925 18.4291 14.7812 18.3309 14.6948L15.3307 12.0514L19.3117 11.6764C19.4419 11.6641 19.5665 11.6171 19.6723 11.5402C19.7781 11.4633 19.8613 11.3594 19.9132 11.2393L21.5 7.56937L23.0869 11.2396C23.1388 11.3597 23.222 11.4636 23.3278 11.5405C23.4336 11.6173 23.5582 11.6644 23.6884 11.6767L27.6695 12.0517L24.6696 14.695ZM42.9648 15.5351C42.9208 15.3996 42.8381 15.28 42.7269 15.1909C42.6157 15.1019 42.4808 15.0473 42.339 15.0339L38.6521 14.6867L37.182 11.2875C37.1255 11.1567 37.0319 11.0454 36.9129 10.9672C36.7938 10.8889 36.6545 10.8472 36.512 10.8472C36.3696 10.8472 36.2302 10.8889 36.1112 10.9672C35.9921 11.0454 35.8985 11.1567 35.842 11.2875L34.3724 14.6867L30.6854 15.0339C30.5436 15.0473 30.4087 15.1019 30.2975 15.1909C30.1863 15.28 30.1036 15.3996 30.0596 15.5351C30.0156 15.6706 30.0121 15.816 30.0498 15.9535C30.0874 16.0909 30.1644 16.2143 30.2713 16.3084L33.05 18.7564L32.241 22.3703C32.2099 22.5093 32.2202 22.6544 32.2705 22.7877C32.3209 22.921 32.4092 23.0366 32.5245 23.1203C32.6397 23.2041 32.777 23.2522 32.9193 23.2589C33.0616 23.2655 33.2028 23.2303 33.3254 23.1577L36.5123 21.2716L39.6989 23.1577C39.8215 23.2303 39.9627 23.2654 40.105 23.2587C40.2473 23.2521 40.3846 23.2039 40.4998 23.1202C40.6151 23.0364 40.7033 22.9208 40.7537 22.7875C40.804 22.6542 40.8142 22.5091 40.7831 22.3701L39.974 18.7563L42.7526 16.3083C42.8595 16.2141 42.9365 16.0907 42.9741 15.9534C43.0117 15.816 43.0083 15.6706 42.9643 15.5351H42.9648ZM38.6854 17.9467C38.5872 18.0331 38.5141 18.1444 38.4737 18.2688C38.4333 18.3932 38.4271 18.5262 38.4556 18.6538L38.9902 21.0417L36.8839 19.7954C36.7714 19.7287 36.6429 19.6936 36.5121 19.6936C36.3813 19.6936 36.2529 19.7287 36.1403 19.7954L34.0346 21.0417L34.5691 18.6538C34.5977 18.5262 34.5915 18.3932 34.5511 18.2688C34.5106 18.1444 34.4375 18.0331 34.3394 17.9467L32.5033 16.3292L34.9395 16.0996C35.0697 16.0873 35.1943 16.0403 35.3001 15.9634C35.4059 15.8865 35.4892 15.7826 35.5411 15.6625L36.5121 13.4165L37.4831 15.6625C37.5351 15.7826 37.6183 15.8865 37.7241 15.9634C37.8299 16.0403 37.9545 16.0873 38.0847 16.0996L40.521 16.3292L38.6854 17.9467ZM12.3156 15.0339L8.62868 14.6867L7.15808 11.2875C7.10155 11.1567 7.00798 11.0454 6.88893 10.9672C6.76987 10.8889 6.63053 10.8472 6.48807 10.8472C6.34562 10.8472 6.20627 10.8889 6.08722 10.9672C5.96816 11.0454 5.8746 11.1567 5.81806 11.2875L4.34847 14.6867L0.661539 15.0339C0.519696 15.0473 0.384861 15.1019 0.273657 15.1909C0.162453 15.28 0.0797414 15.3996 0.0357197 15.5351C-0.00830195 15.6706 -0.0117094 15.816 0.0259172 15.9535C0.0635437 16.0909 0.14056 16.2143 0.24747 16.3084L3.02606 18.7564L2.21699 22.3703C2.18591 22.5093 2.19618 22.6544 2.24654 22.7876C2.2969 22.9209 2.38514 23.0365 2.50039 23.1202C2.61565 23.2039 2.75287 23.252 2.89516 23.2587C3.03745 23.2654 3.17858 23.2303 3.30116 23.1577L6.48807 21.2716L9.67471 23.1577C9.79731 23.2303 9.93845 23.2654 10.0807 23.2587C10.223 23.252 10.3603 23.2038 10.4755 23.1201C10.5908 23.0363 10.679 22.9207 10.7293 22.7875C10.7797 22.6542 10.7899 22.5091 10.7588 22.3701L9.94972 18.7563L12.7284 16.3083C12.8353 16.2141 12.9123 16.0907 12.95 15.9533C12.9876 15.8159 12.9842 15.6704 12.9402 15.5349C12.8961 15.3994 12.8134 15.2798 12.7022 15.1907C12.591 15.1017 12.4562 15.0471 12.3143 15.0337L12.3156 15.0339ZM8.6618 17.9467C8.56366 18.0331 8.49056 18.1444 8.45014 18.2688C8.40972 18.3932 8.40347 18.5262 8.43204 18.6538L8.96656 21.0416L6.8599 19.7954C6.74732 19.7287 6.6189 19.6936 6.48807 19.6936C6.35725 19.6936 6.22883 19.7287 6.11625 19.7954L4.0105 21.0417L4.5451 18.6538C4.57368 18.5262 4.56743 18.3932 4.52701 18.2688C4.48659 18.1444 4.41349 18.0331 4.31535 17.9467L2.47932 16.3292L4.91556 16.0996C5.04579 16.0873 5.17034 16.0403 5.27617 15.9634C5.382 15.8865 5.46522 15.7826 5.51714 15.6625L6.48807 13.4166L7.4591 15.6625C7.51101 15.7826 7.59421 15.8865 7.70003 15.9634C7.80584 16.0403 7.93037 16.0873 8.06059 16.0996L10.4968 16.3292L8.6618 17.9467Z" fill="#5E2727"/>
</g>
<circle id="Ellipse 41" cx="21.5" cy="21.5" r="21.5" fill="#5E2727" fill-opacity="0.1"/>
</g>
</svg>
