<svg width="65" height="79" viewBox="0 0 65 79" fill="none" xmlns="http://www.w3.org/2000/svg">
<path d="M53.4327 78.9997H49.5663C49.0322 78.9997 48.5992 78.5668 48.5992 78.0333V21.967C48.5992 21.4332 49.0322 21.0002 49.5663 21.0002H53.4327C53.9662 21.0002 54.3991 21.4331 54.3991 21.967V78.0333C54.3991 78.5668 53.9662 78.9997 53.4327 78.9997ZM50.5324 77.0661H52.4659V22.9334H50.5324V77.0661Z" fill="#5E2727"/>
<path d="M49.5663 78.9998C49.4407 79.0001 49.3162 78.9758 49.1999 78.9282L27.9332 70.2282C27.7557 70.1555 27.6038 70.0315 27.4969 69.8722C27.39 69.7128 27.3329 69.5253 27.3328 69.3334V30.6671C27.3328 30.2741 27.57 29.9209 27.9332 29.7722L49.1999 21.0722C49.3467 21.012 49.5061 20.9889 49.6639 21.005C49.8217 21.021 49.9732 21.0757 50.1048 21.1643C50.2366 21.2526 50.3446 21.3721 50.4192 21.5121C50.4938 21.6522 50.5327 21.8084 50.5324 21.9671V78.0334C50.5324 78.5669 50.0999 78.9998 49.5663 78.9998ZM29.266 68.6845L48.5992 76.5936V23.4069L29.266 31.3158V68.6845Z" fill="#5E2727"/>
<path d="M45.6992 73.4985C45.5664 73.4985 45.4344 73.4709 45.313 73.4174L31.7795 67.5014C31.6072 67.4261 31.4605 67.3022 31.3575 67.1449C31.2544 66.9876 31.1994 66.8037 31.1992 66.6156V33.3854C31.1994 33.1973 31.2544 33.0135 31.3574 32.8562C31.4605 32.6989 31.6072 32.5751 31.7795 32.5L45.313 26.584C45.4601 26.5198 45.6207 26.4932 45.7806 26.5066C45.9405 26.52 46.0945 26.573 46.2288 26.6607C46.363 26.7487 46.4732 26.8686 46.5495 27.0098C46.6258 27.1509 46.6659 27.3088 46.666 27.4693V72.5321C46.666 73.0656 46.2334 73.4985 45.6992 73.4985ZM33.1332 65.9826L44.7328 71.0537V28.9462L33.1332 34.0172V65.9826Z" fill="#5E2727"/>
<path d="M39.8992 54.8337C39.7765 54.834 39.6549 54.8107 39.541 54.765C39.423 54.718 39.3154 54.6481 39.2244 54.5595C39.1335 54.4709 39.0608 54.3652 39.0107 54.2485C38.9606 54.1318 38.934 54.0063 38.9324 53.8793C38.9309 53.7523 38.9543 53.6262 39.0015 53.5083L40.9347 48.6751C41.0064 48.4956 41.1302 48.3417 41.2903 48.2333C41.4503 48.1249 41.6391 48.0669 41.8324 48.0669H42.7996C43.3331 48.0669 43.766 48.4998 43.766 49.0337C43.766 49.5675 43.3331 50.0001 42.7996 50.0001H42.4869L40.7977 54.2255C40.7259 54.405 40.6019 54.559 40.4417 54.6674C40.2816 54.7757 40.0926 54.8336 39.8992 54.8336V54.8337ZM16.6996 35.5005C13.4966 35.5005 10.8997 32.9039 10.8997 29.7005C10.8997 26.4975 13.4966 23.9009 16.6996 23.9009C19.9027 23.9009 22.5 26.4975 22.5 29.7005C22.4957 32.9025 19.9016 35.4969 16.6996 35.5005ZM16.6996 25.8341C14.5647 25.8341 12.8329 27.565 12.8329 29.7005C12.8329 31.8362 14.5647 33.5673 16.6996 33.5673C18.835 33.5673 20.5664 31.8362 20.5664 29.7005C20.5664 29.1928 20.4663 28.69 20.272 28.2209C20.0776 27.7518 19.7927 27.3255 19.4336 26.9666C19.0746 26.6075 18.6484 26.3227 18.1793 26.1284C17.7102 25.9341 17.2074 25.8341 16.6996 25.8341Z" fill="#5E2727"/>
<path d="M16.6996 25.8341C16.1658 25.8341 15.7332 25.4011 15.7332 24.8673V21.9673C15.7332 21.4335 16.1657 21.0005 16.6996 21.0005C17.2335 21.0005 17.6664 21.4334 17.6664 21.9673V24.8673C17.6664 25.4011 17.2335 25.8341 16.6996 25.8341ZM16.6996 38.4005C16.1658 38.4005 15.7332 37.9678 15.7332 37.4337V34.5341C15.7332 33.9998 16.1657 33.5673 16.6996 33.5673C17.2335 33.5673 17.6664 33.9998 17.6664 34.5341V37.4337C17.6664 37.9678 17.2335 38.4005 16.6996 38.4005ZM14.2832 26.4819C13.9374 26.4819 13.618 26.2978 13.4449 25.9983L11.9949 23.4853C11.7327 23.0233 11.8919 22.4357 12.3521 22.1701C12.8124 21.9046 13.4006 22.06 13.6694 22.5185L15.1194 25.0319C15.2043 25.1787 15.249 25.3452 15.249 25.5148C15.249 25.6843 15.2043 25.8509 15.1194 25.9977C15.0348 26.1447 14.913 26.2668 14.7662 26.3518C14.6194 26.4368 14.4528 26.4817 14.2832 26.4819ZM20.5664 37.3643C20.3966 37.3645 20.2297 37.3199 20.0826 37.2351C19.9355 37.1503 19.8134 37.0282 19.7285 36.8811L18.2785 34.3677C18.0155 33.9057 18.1752 33.3184 18.6354 33.0525C19.0956 32.787 19.6839 32.9429 19.9521 33.4013L21.4026 35.9143C21.4873 36.0612 21.5319 36.2277 21.5319 36.3973C21.532 36.5668 21.4875 36.7334 21.403 36.8804C21.3182 37.0272 21.1962 37.1493 21.0494 37.2342C20.9026 37.3191 20.736 37.364 20.5664 37.3643ZM12.5132 28.2505C12.3436 28.2508 12.1768 28.2062 12.03 28.1213L9.51652 26.6713C9.05813 26.4022 8.90271 25.8142 9.16824 25.3541C9.43405 24.8939 10.0214 24.7345 10.4833 24.9969L12.9968 26.4469C13.181 26.5533 13.3249 26.7175 13.4063 26.9141C13.4876 27.1107 13.5018 27.3286 13.4467 27.534C13.3917 27.7396 13.2704 27.9212 13.1016 28.0508C12.9328 28.1803 12.726 28.2505 12.5132 28.2505ZM23.396 34.5341C23.226 34.5341 23.0593 34.4895 22.9124 34.4045L20.3994 32.9541C19.9408 32.6859 19.7851 32.0971 20.051 31.6369C20.3165 31.1767 20.9038 31.0174 21.3657 31.2805L23.8792 32.7301C24.0633 32.8366 24.2072 33.0009 24.2885 33.1974C24.3698 33.394 24.3841 33.6118 24.329 33.8173C24.274 34.0228 24.1528 34.2044 23.9841 34.3339C23.8154 34.4635 23.6087 34.5339 23.396 34.5341ZM11.8664 30.6673H8.96642C8.43264 30.6673 8 30.2347 8 29.7005C8 29.167 8.43255 28.7341 8.96642 28.7341H11.8664C12.4002 28.7341 12.8328 29.167 12.8328 29.7005C12.8328 30.2347 12.4003 30.6673 11.8664 30.6673ZM24.4332 30.6673H21.5328C20.9993 30.6673 20.5664 30.2347 20.5664 29.7005C20.5664 29.167 20.9993 28.7341 21.5328 28.7341H24.4332C24.9667 28.7341 25.3996 29.167 25.3996 29.7005C25.3996 30.2347 24.9667 30.6673 24.4332 30.6673ZM10.0036 34.5341C9.79083 34.534 9.584 34.4638 9.41517 34.3343C9.24635 34.2047 9.12496 34.0231 9.06983 33.8176C9.0148 33.612 9.02913 33.394 9.11059 33.1974C9.19206 33.0008 9.33611 32.8365 9.52041 32.7301L12.0339 31.2805C12.4958 31.0174 13.0831 31.1767 13.3487 31.6369C13.6145 32.0971 13.4587 32.6858 13.0003 32.9541L10.4868 34.4045C10.34 34.4895 10.1733 34.5342 10.0036 34.5341ZM20.8864 28.2505C20.4489 28.2505 20.0662 27.9567 19.953 27.534C19.8978 27.3286 19.9121 27.1107 19.9934 26.9141C20.0747 26.7176 20.2186 26.5533 20.4028 26.4469L22.9163 24.9969C23.3782 24.7345 23.9655 24.8939 24.2314 25.3541C24.497 25.8142 24.3415 26.4022 23.8831 26.6713L21.3696 28.1213C21.2228 28.2062 21.056 28.2508 20.8864 28.2505ZM12.8328 37.3643C12.6633 37.364 12.4968 37.3192 12.35 37.2342C12.2033 37.1493 12.0814 37.0272 11.9967 36.8804C11.912 36.7335 11.8674 36.5669 11.8675 36.3973C11.8676 36.2277 11.9123 36.0611 11.9971 35.9143L13.4471 33.4013C13.5312 33.253 13.653 33.1296 13.8003 33.0437C13.9475 32.9579 14.1149 32.9125 14.2854 32.9123C14.4558 32.9119 14.6233 32.9565 14.7709 33.0416C14.9186 33.1268 15.041 33.2495 15.1259 33.3973C15.2107 33.5451 15.255 33.7127 15.2542 33.8831C15.2533 34.0536 15.2074 34.2207 15.1211 34.3677L13.6711 36.8811C13.5862 37.0282 13.464 37.1503 13.3168 37.2351C13.1696 37.32 13.0027 37.3645 12.8328 37.3643ZM19.1164 26.4819C18.9468 26.4817 18.7802 26.4368 18.6335 26.3518C18.4867 26.2668 18.3649 26.1447 18.2803 25.9977C18.1954 25.8509 18.1507 25.6843 18.1507 25.5148C18.1507 25.3452 18.1954 25.1787 18.2803 25.0319L19.7303 22.5185C19.9989 22.06 20.5873 21.9046 21.0475 22.1701C21.5077 22.4357 21.667 23.0233 21.4047 23.4853L19.9547 25.9983C19.8696 26.1454 19.7474 26.2675 19.6003 26.3523C19.4531 26.4372 19.2863 26.4819 19.1164 26.4819ZM36.0328 43.2341C35.7765 43.2337 35.5309 43.1319 35.3496 42.9509L25.6828 33.2841C25.3164 32.9046 25.3217 32.3021 25.6945 31.929C26.0676 31.5559 26.6705 31.5505 27.0496 31.9169L36.7164 41.584C36.8515 41.7193 36.9435 41.8915 36.9807 42.079C37.018 42.2664 36.9988 42.4608 36.9256 42.6374C36.8525 42.8139 36.7286 42.9649 36.5697 43.0711C36.4108 43.1773 36.2239 43.234 36.0328 43.2341ZM36.0328 53.8669C35.9059 53.8669 35.7802 53.8419 35.663 53.7933C35.5457 53.7447 35.4392 53.6735 35.3496 53.5837L25.6828 43.9173C25.3164 43.5381 25.3217 42.9349 25.6945 42.5622C26.0676 42.1894 26.6705 42.1841 27.0496 42.5504L36.7164 52.2169C36.8515 52.3521 36.9435 52.5244 36.9807 52.7119C37.0179 52.8994 36.9988 53.0938 36.9256 53.2704C36.8525 53.447 36.7287 53.598 36.5697 53.7041C36.4108 53.8103 36.2239 53.867 36.0328 53.8669ZM36.0328 64.5001C35.9059 64.5001 35.7802 64.4751 35.663 64.4265C35.5457 64.3779 35.4392 64.3066 35.3496 64.2169L25.6828 54.5505C25.3164 54.1713 25.3217 53.5681 25.6945 53.1956C26.0676 52.8226 26.6705 52.8173 27.0496 53.1837L36.7164 62.8501C36.8515 62.9853 36.9435 63.1576 36.9807 63.3451C37.0179 63.5326 36.9988 63.7269 36.9256 63.9036C36.8525 64.0802 36.7287 64.2311 36.5697 64.3373C36.4108 64.4435 36.2239 64.5001 36.0328 64.5001ZM63.0991 57.7337C62.8429 57.7335 62.5971 57.6316 62.4159 57.4505L52.7492 47.7837C52.3828 47.4045 52.3881 46.8017 52.7609 46.4288C53.1339 46.0558 53.7369 46.0505 54.116 46.4169L63.7827 56.0836C63.9178 56.2188 64.0098 56.391 64.0471 56.5785C64.0843 56.7659 64.0651 56.9602 63.992 57.1368C63.9188 57.3134 63.795 57.4643 63.636 57.5706C63.4771 57.6768 63.2903 57.7336 63.0991 57.7337ZM63.0991 68.3665C62.9722 68.3666 62.8465 68.3416 62.7293 68.293C62.6121 68.2444 62.5056 68.1731 62.4159 68.0833L52.7492 58.4169C52.3828 58.0377 52.3881 57.4345 52.7609 57.062C53.1339 56.689 53.7369 56.6837 54.116 57.0501L63.7827 66.7165C63.9178 66.8517 64.0098 67.024 64.0471 67.2115C64.0843 67.399 64.0651 67.5934 63.992 67.77C63.9188 67.9466 63.795 68.0975 63.6361 68.2037C63.4771 68.3099 63.2903 68.3665 63.0991 68.3665ZM63.0991 79C62.9722 79 62.8466 78.975 62.7293 78.9264C62.6121 78.8778 62.5056 78.8066 62.4159 78.7168L52.7492 69.0504C52.3828 68.6709 52.3881 68.068 52.7609 67.6953C53.1339 67.3222 53.7369 67.3169 54.116 67.6833L63.7827 77.3497C63.9178 77.485 64.0098 77.6573 64.047 77.8449C64.0843 78.0325 64.0651 78.2268 63.992 78.4035C63.9188 78.5801 63.795 78.7311 63.6361 78.8372C63.4771 78.9434 63.2903 79.0001 63.0991 79Z" fill="#5E2727"/>
<circle cx="30" cy="30" r="30" fill="#5E2727" fill-opacity="0.1"/>
</svg>
