<svg width="76" height="82" viewBox="0 0 76 82" fill="none" xmlns="http://www.w3.org/2000/svg">
<path d="M43.75 24.25H45.875V68.875H43.75V24.25ZM21.4375 68.875H41.625V24.25H21.4375V68.875ZM25.3464 61.1549L23.9036 59.5951L37.7161 46.8451L39.1589 48.4049L25.3464 61.1549ZM37.6863 31.9988L39.1887 33.5012L25.3762 47.3137L23.8738 45.8113L37.6863 31.9988ZM48 68.875H68.1875V24.25H48V68.875ZM51.9089 61.1549L50.4661 59.5951L64.2786 46.8451L65.7214 48.4049L51.9089 61.1549ZM64.2488 31.9988L65.7512 33.5012L51.9387 47.3137L50.4363 45.8113L64.2488 31.9988Z" fill="#5E2727"/>
<path d="M72.4375 20H17.1875V73.125H72.4375V20ZM70.3125 69.9375C70.3125 70.2193 70.2006 70.4895 70.0013 70.6888C69.802 70.8881 69.5318 71 69.25 71H20.375C20.0932 71 19.823 70.8881 19.6237 70.6888C19.4244 70.4895 19.3125 70.2193 19.3125 69.9375V23.1875C19.3125 22.9057 19.4244 22.6355 19.6237 22.4362C19.823 22.2369 20.0932 22.125 20.375 22.125H69.25C69.5318 22.125 69.802 22.2369 70.0013 22.4362C70.2006 22.6355 70.3125 22.9057 70.3125 23.1875V69.9375ZM14 79.5H75.625V81.625H14V79.5Z" fill="#5E2727"/>
<circle cx="30" cy="30" r="30" fill="#5E2727" fill-opacity="0.1"/>
</svg>
