<svg width="60" height="88" viewBox="0 0 60 88" fill="none" xmlns="http://www.w3.org/2000/svg">
<path d="M47.2122 63.4105H45.7601C45.6285 63.733 45.4923 64.0535 45.3514 64.372H48.1738V55.5794C47.8759 56.8617 47.5553 58.0804 47.2122 59.2347V63.4105ZM47.2122 47.1117V53.4999C47.5994 51.6498 47.9157 49.7416 48.1738 47.9033V47.1117H47.2122ZM27.9808 63.4105V47.1117H27.0193V64.372H42.8632C43.1144 64.0604 43.3542 63.7396 43.5821 63.4105H27.9808ZM39.5908 47.1117H38.9798L35.2152 50.8765L35.5206 51.1819L39.5908 47.1117ZM36.5691 52.2354L41.4485 47.3559L41.7539 47.6613L36.8745 52.5406L36.5691 52.2354Z" fill="#5E2727"/>
<path d="M40.339 47.1116L33.273 54.1777L33.5784 54.4831L40.95 47.1116H40.339ZM25.4807 23V23.5769H24.9278V24.3462H25.4807V24.9232H49.7123V24.3462H50.2652V23.5769H49.7123V23H25.4807ZM48.5413 45.0186C48.7093 43.5527 48.8534 42.0841 48.9734 40.6134C49.0559 39.6024 49.1254 38.6278 49.1836 37.6926V25.6393L49.1273 25.5241H26.0096V45.0186H48.5413ZM25.4486 45.461V46.2943H48.388C48.4232 46.0137 48.4575 45.7356 48.49 45.461H25.4486Z" fill="#5E2727"/>
<path d="M33.1712 73.8915C33.2591 73.8938 33.3466 73.8948 33.4339 73.8948C36.1025 73.8948 38.5072 72.8773 40.5848 70.8679C43.8463 67.7136 46.3574 62.0743 48.0484 54.107C49.6658 46.4865 50.5362 36.7411 50.6356 25.1414L50.251 25.1379C50.2449 25.8639 50.2356 26.5824 50.2231 27.2934C50.171 26.2751 50.0854 25.6016 49.975 25.3756L49.6294 25.5447C49.9291 26.1568 50.0781 32.5153 49.4142 40.6495C48.9567 46.2546 47.7769 56.466 45.0154 61.8808C42.1874 67.4259 36.3175 70.3727 33.1641 71.9559C32.8329 72.1208 32.5034 72.2891 32.1756 72.4607C32.0257 72.3476 31.8524 72.2698 31.6683 72.2328C31.5472 72.2088 31.4232 72.2029 31.3004 72.2153L24.739 72.8809C24.53 72.9019 24.3298 72.9754 24.157 73.0946C23.3172 73.4413 22.6639 74.1917 22.4866 75.1518L21.8071 78.8317C21.5288 80.3357 22.5239 81.7815 24.0282 82.0571C24.2651 82.1002 24.5068 82.1121 24.7468 82.0927L25.8178 86.2609C25.8974 86.5708 26.0778 86.8454 26.3305 87.0416C26.5832 87.2378 26.8939 87.3445 27.2139 87.3448C27.3325 87.3448 27.4533 87.33 27.5737 87.299C27.7572 87.2519 27.9295 87.1691 28.081 87.0554C28.2325 86.9417 28.36 86.7992 28.4564 86.6361C28.5528 86.4731 28.6161 86.2926 28.6427 86.1051C28.6694 85.9176 28.6588 85.7266 28.6116 85.5432L27.2027 80.0605C27.2225 79.9872 27.2416 79.9133 27.2558 79.8374L27.9354 76.1587C28.0023 75.7988 27.997 75.4291 27.9197 75.0712L31.5527 74.7025C31.8579 74.6716 32.1409 74.529 32.3474 74.3021C32.4615 74.1774 32.5492 74.0309 32.6053 73.8713C32.7747 73.8796 32.9624 73.8863 33.1712 73.8915ZM33.3366 72.2995C36.5295 70.6966 42.4726 67.7128 45.3579 62.0553C45.402 61.9687 45.4458 61.8812 45.4893 61.792C44.069 65.6821 42.3411 68.6342 40.3173 70.5912C38.2484 72.5921 35.8419 73.5721 33.1807 73.5069C32.992 73.5023 32.8256 73.4961 32.6753 73.489C32.6764 73.4373 32.6756 73.3852 32.6703 73.3325C32.6492 73.1224 32.5748 72.9213 32.4543 72.748C32.7473 72.5963 33.0414 72.4468 33.3366 72.2995Z" fill="#5E2727"/>
<path d="M22.8687 68.6469C22.5975 70.2497 23.6774 71.7676 25.2788 72.0374C26.8806 72.3078 28.3983 71.2303 28.6695 69.6279C28.9397 68.0269 27.862 66.5083 26.2598 66.2372C24.658 65.966 23.14 67.0461 22.8687 68.6469ZM22.0177 73.5431C22.0015 73.4947 21.9667 73.4548 21.9211 73.432C21.8754 73.4093 21.8226 73.4056 21.7742 73.4217C21.3415 73.5665 21.0426 73.8085 20.8861 74.1404C20.6444 74.6533 20.8436 75.1858 20.8523 75.2081C20.8705 75.2556 20.9067 75.2939 20.9531 75.3146C20.9995 75.3353 21.0523 75.3368 21.0998 75.3187C21.1474 75.3006 21.1858 75.2645 21.2068 75.2181C21.2277 75.1717 21.2294 75.1189 21.2115 75.0712C21.21 75.0672 21.0628 74.6641 21.2353 74.3017C21.3459 74.0696 21.5682 73.8965 21.8963 73.7865C21.9969 73.7529 22.0513 73.6438 22.0177 73.5431Z" fill="#5E2727"/>
<path d="M21.5294 73.0106C21.5784 72.9964 21.6196 72.9632 21.6442 72.9185C21.6687 72.8738 21.6744 72.8211 21.6602 72.7722C21.6459 72.7232 21.6127 72.6819 21.568 72.6574C21.5233 72.6329 21.4707 72.6271 21.4217 72.6414C20.769 72.8322 20.3101 73.1716 20.0568 73.6499C19.6718 74.3778 19.9159 75.1536 19.9264 75.1863C19.9342 75.2103 19.9466 75.2326 19.963 75.2518C19.9794 75.271 19.9994 75.2868 20.0219 75.2983C20.0444 75.3098 20.0689 75.3168 20.0941 75.3188C20.1192 75.3207 20.1445 75.3178 20.1686 75.31C20.2171 75.2943 20.2574 75.26 20.2806 75.2146C20.3039 75.1692 20.3081 75.1164 20.2924 75.0678C20.2903 75.0613 20.087 74.4153 20.397 73.8295C20.5995 73.4466 20.9805 73.1712 21.5294 73.0106ZM51.0478 46.5953C51.3066 46.0906 51.1249 45.552 51.1172 45.5293C51.1003 45.4814 51.0651 45.4422 51.0193 45.4201C50.9736 45.3981 50.921 45.395 50.873 45.4117C50.825 45.4283 50.7855 45.4632 50.7632 45.5088C50.7408 45.5544 50.7374 45.6069 50.7537 45.655C50.7553 45.6591 50.8874 46.0655 50.7056 46.4197C50.6083 46.6093 50.4314 46.7536 50.1868 46.8547C50.1352 46.8761 50.0847 46.898 50.0266 46.9153C49.9853 46.9279 49.9496 46.9543 49.9253 46.99C49.9011 47.0257 49.8898 47.0686 49.8933 47.1116C49.8943 47.1259 49.8929 47.1401 49.8971 47.1543C49.9043 47.1786 49.9162 47.2011 49.9321 47.2207C49.948 47.2404 49.9676 47.2566 49.9898 47.2687C50.012 47.2807 50.0364 47.2882 50.0615 47.2908C50.0866 47.2934 50.112 47.291 50.1362 47.2838C50.5735 47.1538 50.8803 46.9218 51.0478 46.5953Z" fill="#5E2727"/>
<path d="M51.8044 45.45C51.7554 45.464 51.7139 45.4968 51.6891 45.5413C51.6643 45.5858 51.6582 45.6383 51.672 45.6873C51.674 45.6939 51.854 46.3539 51.5245 46.9255C51.3091 47.2997 50.9195 47.5615 50.3672 47.7032C50.3178 47.7159 50.2754 47.7477 50.2494 47.7916C50.2235 47.8356 50.216 47.888 50.2287 47.9374C50.2414 47.9869 50.2732 48.0292 50.3172 48.0552C50.3611 48.0811 50.4135 48.0886 50.463 48.0759C51.1213 47.9069 51.5915 47.583 51.8603 47.1134C52.2694 46.3985 52.0513 45.6148 52.0417 45.5818C52.0275 45.5329 51.9946 45.4917 51.9501 45.467C51.9057 45.4423 51.8533 45.4362 51.8044 45.45ZM15.8699 60.1293L23 65.7176L23.3177 65.4613L16.574 59.6102L15.8699 60.1293ZM21.2367 56.427L24.4476 64.8983L24.8522 64.8433L22.1079 56.347L21.2367 56.427ZM13 65.7947L21.8862 67.5577L22.0537 67.1856L13.3937 65.0134L13 65.7947Z" fill="#5E2727"/>
<circle cx="30" cy="30" r="30" fill="#5E2727" fill-opacity="0.1"/>
</svg>
