<svg width="90" height="79" viewBox="0 0 90 79" fill="none" xmlns="http://www.w3.org/2000/svg">
<path d="M41.7099 46.2542C41.3012 46.5531 40.9525 46.817 40.6733 47.0421C41.0518 46.8856 41.4256 46.7181 41.7942 46.5395C42.0805 46.4006 42.3266 46.1908 42.5089 45.9299C42.4552 45.9582 42.4003 45.9844 42.3445 46.0084C42.1347 46.0948 41.9231 46.1768 41.7099 46.2542ZM37.0345 47.3964C36.4786 47.483 35.8992 47.5613 35.2924 47.6303C33.2896 47.854 31.0738 47.9673 28.7061 47.9678C26.6823 47.9678 25.3455 47.8833 25.3319 47.8823C25.0251 47.864 24.7249 47.785 24.4487 47.65C24.1726 47.5149 23.9259 47.3264 23.7231 47.0955C23.5188 46.8655 23.3621 46.5972 23.2623 46.3062C23.1624 46.0153 23.1213 45.7074 23.1413 45.4004C23.2172 44.1681 24.243 43.2033 25.4767 43.2033C25.5254 43.2033 25.5743 43.2047 25.6235 43.2079H25.6212L25.6528 43.2093L25.8272 43.2187C25.9699 43.2257 26.1816 43.2356 26.4525 43.2447C26.9989 43.2644 27.5628 43.2742 28.1312 43.2789C27.2434 42.2304 26.0301 41.6122 24.8376 41.8963C22.8334 42.3735 20.7599 44.6714 21.2915 48.2582C22.0503 53.1862 23.1617 56.074 26.0938 60.4139C27.149 61.7458 28.2213 62.3221 29.2529 62.464C29.2675 62.7038 29.2761 62.9528 29.2754 63.2111C29.274 64.9155 28.922 66.8756 27.7368 68.6208C26.5418 70.3592 24.4863 72.1011 20.3079 73.2451C18.7473 73.6657 17.8225 75.2722 18.2435 76.8335C18.5953 78.1394 19.7777 79 21.0688 79C21.321 79 21.577 78.9672 21.832 78.8984L21.8315 78.8979C27.0518 77.5096 30.5623 74.9153 32.5843 71.9039C34.206 69.5056 34.8615 66.9803 35.0596 64.7956C35.6109 65.2524 36.147 65.7272 36.6671 66.2192C39.3143 68.7222 42.2436 72.3135 44.3798 77.2347C45.0231 78.7173 46.7472 79.3979 48.2306 78.7543C49.7134 78.1106 50.394 76.3869 49.7502 74.9036C46.8428 68.2058 42.6674 63.5848 39.2169 60.6418C36.7006 58.4964 34.5646 57.2299 33.5201 56.6669C31.9175 54.2023 30.8981 51.0984 30.1108 48.4032C30.9602 48.5118 31.8836 48.5811 32.8695 48.5828H32.8805C34.3233 48.5828 35.8994 48.4313 37.5472 48.0463L37.0671 47.4458C37.0544 47.4306 37.046 47.4125 37.0345 47.3964ZM43.6061 42.9456C43.7749 43.3521 43.8251 43.798 43.7508 44.2318C47.9748 41.2846 54.6131 36.7734 59.9135 32.1494L59.9215 32.144L60.1006 32.0009C60.3287 31.8185 60.346 31.4599 60.1385 31.2004L59.0114 29.7904C58.8037 29.5307 58.4508 29.4684 58.2222 29.6503L58.0428 29.7937C58.0405 29.796 58.0386 29.7984 58.036 29.8002C52.6373 33.7461 47.0706 38.8947 43.2646 42.3747C43.405 42.5478 43.52 42.7401 43.6061 42.9456ZM38.445 48.4203C38.6497 48.676 39.0005 48.7357 39.2289 48.553L39.4357 48.3879C39.5806 48.2718 39.6413 48.0856 39.6134 47.8994C39.5984 47.5896 39.7078 47.1826 40.1567 46.8601C40.2214 46.8053 40.2942 46.7463 40.3687 46.6861C39.5143 46.9282 38.5799 47.1357 37.5586 47.3107L38.445 48.4203Z" fill="#5E2727"/>
<path d="M26.4356 43.7131C26.2251 43.7056 26.0147 43.6968 25.8043 43.6866C25.6607 43.6796 25.5944 43.6751 25.5944 43.6756C25.3488 43.6603 25.1026 43.6935 24.8699 43.7734C24.6371 43.8532 24.4224 43.9782 24.238 44.1411C24.0536 44.304 23.903 44.5016 23.795 44.7227C23.687 44.9438 23.6237 45.1841 23.6085 45.4297C23.5933 45.6752 23.6265 45.9214 23.7064 46.1541C23.7862 46.3867 23.9112 46.6014 24.074 46.7858C24.2368 46.9702 24.4344 47.1208 24.6554 47.2288C24.8764 47.3369 25.1166 47.4003 25.3621 47.4156V47.4151C25.3909 47.417 26.726 47.4997 28.7059 47.4997C30.51 47.4992 32.8482 47.4317 35.239 47.1652C37.6336 46.8936 40.0733 46.4416 42.1646 45.576C42.6144 45.3789 42.9688 45.0132 43.1516 44.5574C43.3345 44.1017 43.3311 43.5924 43.1423 43.1391C42.9535 42.6858 42.5943 42.3247 42.1419 42.1335C41.6896 41.9424 41.1803 41.9364 40.7237 42.1169C39.1862 42.7625 37.0125 43.2002 34.8233 43.4407C32.6306 43.6859 30.4138 43.7524 28.7059 43.752C27.9489 43.7525 27.1921 43.7396 26.4356 43.7131Z" fill="#5E2727"/>
<path d="M27.7801 38.2517C29.0719 35.6447 28.0057 32.4841 25.3986 31.1922C22.7916 29.9003 19.6309 30.9664 18.3391 33.5733C17.0472 36.1803 18.1134 39.3409 20.7205 40.6328C23.3276 41.9247 26.4882 40.8586 27.7801 38.2517Z" fill="#5E2727"/>
<path d="M46.6636 29.8639C46.7405 29.864 46.8167 29.8488 46.8877 29.8194C46.9588 29.79 47.0233 29.7469 47.0777 29.6925C47.1321 29.6382 47.1753 29.5736 47.2047 29.5026C47.2341 29.4315 47.2493 29.3554 47.2493 29.2785V18.1709H67.155V49.1846H55.4459C55.2906 49.1846 55.1417 49.2463 55.0319 49.3561C54.9221 49.4659 54.8604 49.6148 54.8604 49.7701C54.8604 49.9254 54.9221 50.0743 55.0319 50.1841C55.1417 50.2939 55.2906 50.3556 55.4459 50.3556H88.8178C88.9719 50.3556 89.1227 50.2928 89.2316 50.1839C89.3405 50.075 89.4031 49.9242 89.4031 49.7701V17.5855C89.403 17.4302 89.3413 17.2814 89.2315 17.1716C89.1217 17.0619 88.9728 17.0002 88.8176 17.0002H67.7426L67.7402 17L67.7379 17.0002H46.6634C46.5093 17.0002 46.3587 17.0623 46.2495 17.1719C46.1402 17.2819 46.0786 17.4306 46.0781 17.5857V29.2787C46.0782 29.4339 46.1399 29.5828 46.2497 29.6925C46.3595 29.8023 46.5084 29.8639 46.6636 29.8639ZM68.3264 49.1844V18.1709H88.2321V49.1842L68.3264 49.1844Z" fill="#5E2727"/>
<path d="M76.0986 33.8447C76.1607 33.8446 76.2203 33.82 76.2642 33.776L79.326 30.7147C79.3697 30.6707 79.3943 30.6111 79.3943 30.5489C79.3943 30.4868 79.3697 30.4272 79.326 30.3831C79.2819 30.3394 79.2224 30.3148 79.1603 30.3148C79.0982 30.3148 79.0386 30.3394 78.9946 30.3831L75.9331 33.4451C75.9004 33.4779 75.8782 33.5196 75.8692 33.565C75.8602 33.6104 75.8649 33.6574 75.8826 33.7001C75.9003 33.7429 75.9302 33.7794 75.9687 33.8051C76.0072 33.8308 76.0524 33.8446 76.0986 33.8447ZM80.7873 32.177L77.726 35.2383C77.7042 35.2601 77.687 35.2859 77.6752 35.3143C77.6634 35.3428 77.6574 35.3732 77.6574 35.404C77.6574 35.4348 77.6634 35.4652 77.6752 35.4937C77.687 35.5221 77.7042 35.5479 77.726 35.5697C77.7478 35.5914 77.7736 35.6087 77.802 35.6205C77.8304 35.6323 77.8609 35.6383 77.8917 35.6383C77.9225 35.6383 77.9529 35.6323 77.9813 35.6205C78.0098 35.6087 78.0356 35.5914 78.0574 35.5697L81.1187 32.5079C81.1613 32.4637 81.1849 32.4045 81.1843 32.3431C81.1837 32.2817 81.159 32.223 81.1156 32.1796C81.0721 32.1362 81.0134 32.1116 80.952 32.1112C80.8906 32.1107 80.8314 32.1343 80.7873 32.177ZM82.0559 29.2462L74.7956 36.5062C74.7519 36.5502 74.7273 36.6097 74.7273 36.6718C74.7273 36.7338 74.7519 36.7933 74.7956 36.8373C74.8174 36.8591 74.8432 36.8764 74.8717 36.8882C74.9001 36.9 74.9306 36.906 74.9614 36.906C74.9922 36.906 75.0227 36.9 75.0511 36.8882C75.0796 36.8764 75.1054 36.8591 75.1272 36.8373L82.387 29.5778C82.4289 29.5334 82.4518 29.4745 82.4509 29.4136C82.4501 29.3526 82.4255 29.2944 82.3824 29.2512C82.3393 29.2081 82.2811 29.1834 82.2202 29.1825C82.1592 29.1815 82.1003 29.2044 82.0559 29.2462ZM60.0327 36.6633C60.0017 36.6822 59.9756 36.708 59.9564 36.7388C59.9372 36.7695 59.9255 36.8043 59.9221 36.8404L59.7282 38.8183L57.9296 37.8385C57.8991 37.822 57.8654 37.8124 57.8307 37.8105C57.7961 37.8086 57.7615 37.8144 57.7293 37.8275C57.6972 37.8406 57.6684 37.8606 57.6449 37.8862C57.6214 37.9117 57.6039 37.9421 57.5936 37.9753L56.7486 40.7274L55.3182 38.2666C55.2983 38.2324 55.2701 38.2037 55.2362 38.1834C55.2023 38.163 55.1637 38.1516 55.1242 38.1502C55.0846 38.1487 55.0453 38.1574 55.01 38.1752C54.9747 38.1931 54.9445 38.2196 54.9222 38.2523L54.0473 39.5361L53.645 38.679C53.6319 38.6512 53.6135 38.6262 53.5908 38.6055C53.5681 38.5848 53.5415 38.5688 53.5126 38.5584C53.4837 38.5479 53.453 38.5433 53.4223 38.5448C53.3916 38.5462 53.3615 38.5537 53.3337 38.5668C53.3059 38.5798 53.2809 38.5982 53.2602 38.6209C53.2394 38.6436 53.2234 38.6702 53.213 38.6991C53.2026 38.7281 53.198 38.7587 53.1994 38.7894C53.2009 38.8202 53.2084 38.8503 53.2215 38.8781L53.7979 40.1071C53.8153 40.1446 53.8424 40.1768 53.8764 40.2004C53.9104 40.2239 53.9501 40.2381 53.9913 40.2413C54.0754 40.2478 54.1562 40.2089 54.2037 40.1394L55.1002 38.823L56.6133 41.426C56.6601 41.5068 56.7496 41.5515 56.8426 41.541L56.8437 41.5408C56.8888 41.5355 56.9313 41.5171 56.9661 41.488C57.0008 41.4589 57.0264 41.4202 57.0395 41.3768L57.957 38.3867L59.8149 39.3991C59.8488 39.4176 59.8869 39.4275 59.9256 39.4277C59.9643 39.4279 60.0024 39.4186 60.0366 39.4004C60.0708 39.3823 60.1 39.356 60.1215 39.3239C60.1431 39.2917 60.1563 39.2547 60.1601 39.2162L60.3577 37.1942L63.622 38.4752C63.667 38.493 63.7164 38.4964 63.7633 38.485C63.8103 38.4736 63.8526 38.4479 63.8844 38.4115C63.9162 38.3751 63.9359 38.3297 63.9408 38.2816C63.9458 38.2335 63.9357 38.1851 63.912 38.1429L62.546 35.7064L64.2012 34.3706C64.2294 34.3478 64.252 34.3186 64.267 34.2855C64.2821 34.2524 64.2893 34.2163 64.288 34.18C64.2867 34.1436 64.277 34.1081 64.2596 34.0762C64.2422 34.0442 64.2177 34.0168 64.1878 33.9959L62.8043 33.0355L65.2211 30.9651C65.2533 30.9378 65.2775 30.9024 65.2911 30.8624C65.3048 30.8225 65.3074 30.7796 65.2986 30.7384C65.2898 30.6971 65.27 30.659 65.2413 30.6281C65.2126 30.5971 65.1761 30.5746 65.1356 30.5628L62.8572 29.8836L63.1916 27.5911C63.1969 27.5549 63.1936 27.5178 63.1819 27.4831C63.1703 27.4483 63.1506 27.4167 63.1246 27.3909C63.0985 27.3651 63.0668 27.3458 63.0319 27.3345C62.997 27.3232 62.9599 27.3202 62.9237 27.3258L60.9912 27.6235L60.4151 24.3064C60.4072 24.2623 60.3869 24.2214 60.3565 24.1884C60.3261 24.1555 60.2869 24.132 60.2435 24.1206C60.2002 24.1093 60.1545 24.1106 60.1118 24.1244C60.0692 24.1382 60.0314 24.1639 60.0029 24.1985L58.1962 26.4092L57.1407 25.0818C57.1151 25.0495 57.0814 25.0246 57.0431 25.0095C57.0048 24.9943 56.9632 24.9896 56.9224 24.9957C56.8817 25.0018 56.8433 25.0185 56.8111 25.0442C56.7789 25.0699 56.754 25.1036 56.739 25.142L56.1252 26.7099L53.6063 23.9228C53.5743 23.8876 53.5324 23.863 53.4861 23.8522C53.4398 23.8413 53.3913 23.8448 53.3471 23.8622C53.3028 23.8796 53.2649 23.91 53.2383 23.9495C53.2118 23.9889 53.1978 24.0355 53.1984 24.083L53.2637 29.4124L49.7659 29.0562C49.7261 29.0522 49.686 29.0585 49.6493 29.0743C49.6126 29.0902 49.5806 29.1153 49.5563 29.147C49.532 29.1788 49.5163 29.2162 49.5106 29.2558C49.5049 29.2954 49.5094 29.3358 49.5237 29.3731L50.5129 31.9491L48.3352 32.0688C48.2926 32.0712 48.2515 32.0852 48.2163 32.1092C48.1811 32.1332 48.1531 32.1664 48.1354 32.2052C48.1176 32.244 48.1108 32.2869 48.1157 32.3292C48.1205 32.3716 48.1368 32.4119 48.1629 32.4456L49.5535 34.247C49.6324 34.3493 49.7797 34.3683 49.8823 34.2894C49.9066 34.2706 49.927 34.2472 49.9424 34.2206C49.9577 34.1939 49.9676 34.1645 49.9715 34.134C49.9754 34.1035 49.9733 34.0725 49.9653 34.0429C49.9573 34.0132 49.9434 33.9854 49.9246 33.9611L49.9244 33.9606L48.8055 32.5119L50.86 32.3993C50.8968 32.3974 50.9327 32.3868 50.9647 32.3683C50.9966 32.3498 51.0237 32.324 51.0436 32.2929C51.0843 32.2297 51.0925 32.1517 51.0658 32.0815L50.0972 29.5609L53.4777 29.9049C53.5106 29.9083 53.5437 29.9047 53.5751 29.8943C53.6064 29.884 53.6352 29.8671 53.6595 29.8448C53.6839 29.8226 53.7033 29.7954 53.7164 29.7651C53.7295 29.7348 53.736 29.7021 53.7356 29.6691L53.6745 24.6964L56.0318 27.3045C56.0586 27.334 56.0925 27.3561 56.1302 27.3689C56.168 27.3816 56.2084 27.3846 56.2476 27.3774C56.2868 27.3702 56.3235 27.3532 56.3543 27.3279C56.3851 27.3026 56.4089 27.2699 56.4236 27.2328L57.0269 25.6909L58.0102 26.9277C58.0319 26.9551 58.0595 26.9773 58.091 26.9926C58.1224 27.0079 58.1569 27.016 58.1919 27.0163C58.2268 27.0166 58.2614 27.009 58.2931 26.9942C58.3247 26.9793 58.3527 26.9576 58.3748 26.9305L60.0416 24.8907L60.5692 27.9293C60.5912 28.0553 60.7095 28.1398 60.8359 28.1209L62.6823 27.8363L62.3642 30.0162C62.3476 30.1307 62.4181 30.241 62.5293 30.2742L64.5899 30.8883L62.2691 32.8768C62.2419 32.9001 62.2203 32.9293 62.2062 32.9623C62.192 32.9953 62.1856 33.031 62.1875 33.0668C62.1893 33.1027 62.1994 33.1376 62.2169 33.1689C62.2344 33.2002 62.2588 33.2271 62.2883 33.2475L63.6637 34.2023L62.098 35.4662C62.055 35.5009 62.0257 35.5497 62.0152 35.604C62.0047 35.6582 62.0137 35.7144 62.0406 35.7627L63.1827 37.7994L60.2404 36.6446C60.2067 36.6315 60.1704 36.6263 60.1343 36.6296C60.0983 36.6328 60.0635 36.6444 60.0327 36.6633Z" fill="#5E2727"/>
<circle cx="30" cy="30" r="30" fill="#5E2727" fill-opacity="0.1"/>
</svg>
