<svg width="151" height="19" viewBox="0 0 151 19" fill="none" xmlns="http://www.w3.org/2000/svg">
<path d="M6.808 18.168C5.576 18.168 4.44 17.968 3.4 17.568C2.36 17.152 1.464 16.552 0.712 15.768L2.128 13.944C2.304 14.216 2.552 14.488 2.872 14.76C3.192 15.016 3.576 15.256 4.024 15.48C4.472 15.704 4.968 15.888 5.512 16.032C6.056 16.16 6.64 16.224 7.264 16.224C8.128 16.224 8.872 16.104 9.496 15.864C10.12 15.624 10.6 15.28 10.936 14.832C11.272 14.368 11.44 13.816 11.44 13.176C11.44 12.648 11.28 12.224 10.96 11.904C10.64 11.568 10.176 11.288 9.568 11.064C8.976 10.824 8.264 10.592 7.432 10.368C6.552 10.128 5.8 9.856 5.176 9.552C4.568 9.248 4.104 8.872 3.784 8.424C3.464 7.976 3.304 7.416 3.304 6.744C3.304 5.816 3.488 4.992 3.856 4.272C4.224 3.536 4.728 2.912 5.368 2.4C6.024 1.888 6.776 1.504 7.624 1.248C8.472 0.975999 9.376 0.839999 10.336 0.839999C11.056 0.839999 11.72 0.919999 12.328 1.08C12.936 1.24 13.48 1.464 13.96 1.752C14.456 2.04 14.888 2.384 15.256 2.784L13.888 4.536C13.76 4.312 13.568 4.096 13.312 3.888C13.056 3.68 12.752 3.496 12.4 3.336C12.048 3.16 11.656 3.024 11.224 2.928C10.808 2.816 10.36 2.76 9.88 2.76C8.92 2.76 8.128 2.904 7.504 3.192C6.88 3.48 6.416 3.872 6.112 4.368C5.824 4.848 5.68 5.408 5.68 6.048C5.68 6.512 5.816 6.896 6.088 7.2C6.36 7.488 6.76 7.736 7.288 7.944C7.832 8.136 8.504 8.336 9.304 8.544C10.232 8.768 11.032 9.04 11.704 9.36C12.376 9.68 12.896 10.088 13.264 10.584C13.648 11.08 13.84 11.72 13.84 12.504C13.84 13.464 13.656 14.304 13.288 15.024C12.92 15.728 12.408 16.312 11.752 16.776C11.112 17.24 10.368 17.592 9.52 17.832C8.672 18.056 7.768 18.168 6.808 18.168ZM18.7122 18.24C16.7602 18.24 15.7842 17.184 15.7842 15.072C15.7842 14.768 15.8082 14.448 15.8562 14.112C15.9042 13.76 15.9682 13.384 16.0482 12.984L17.6562 5.472H19.7442L18.2322 12.576C18.0882 13.216 18.0162 13.768 18.0162 14.232C18.0162 15.688 18.6402 16.416 19.8882 16.416C20.4322 16.416 20.9762 16.296 21.5202 16.056C22.0642 15.8 22.5842 15.44 23.0802 14.976C23.5922 14.512 24.0322 13.96 24.4002 13.32L26.0562 5.472H28.1682L26.0562 15.408C26.0402 15.472 26.0242 15.528 26.0082 15.576C26.0082 15.624 26.0082 15.672 26.0082 15.72C26.0082 16.008 26.1842 16.16 26.5362 16.176L26.1522 18C25.9762 18.016 25.8162 18.032 25.6722 18.048C25.5442 18.08 25.4242 18.096 25.3122 18.096C24.8802 18.096 24.5522 18 24.3282 17.808C24.1042 17.616 23.9922 17.36 23.9922 17.04C23.9922 16.944 24.0002 16.832 24.0162 16.704C24.0322 16.56 24.0562 16.376 24.0882 16.152C24.1362 15.928 24.1922 15.648 24.2562 15.312C23.5362 16.24 22.6882 16.96 21.7122 17.472C20.7362 17.984 19.7362 18.24 18.7122 18.24ZM31.6278 5.472H33.5478L32.9718 8.16C33.4038 7.568 33.9158 7.056 34.5078 6.624C35.1158 6.192 35.7638 5.856 36.4518 5.616C37.1398 5.376 37.8278 5.256 38.5158 5.256C39.1878 5.256 39.7238 5.384 40.1238 5.64C40.5238 5.88 40.8118 6.224 40.9878 6.672C41.1638 7.104 41.2518 7.616 41.2518 8.208C41.2518 8.56 41.2198 8.928 41.1558 9.312C41.1078 9.696 41.0438 10.096 40.9637 10.512L39.3798 18H37.2678L38.7558 10.992C38.8358 10.64 38.8918 10.32 38.9238 10.032C38.9558 9.728 38.9718 9.448 38.9718 9.192C38.9718 8.488 38.8278 7.976 38.5398 7.656C38.2518 7.32 37.8278 7.152 37.2678 7.152C36.7398 7.152 36.1798 7.296 35.5878 7.584C34.9958 7.872 34.4438 8.264 33.9318 8.76C33.4198 9.24 33.0038 9.8 32.6838 10.44L31.0758 18H28.9638L31.6278 5.472ZM49.3049 18.12C48.3929 18.12 47.5689 17.928 46.8329 17.544C46.0969 17.144 45.4729 16.616 44.9609 15.96C44.4489 15.288 44.0569 14.528 43.7849 13.68C43.5129 12.816 43.3769 11.92 43.3769 10.992C43.3769 9.696 43.6409 8.448 44.1689 7.248C44.6969 6.032 45.4089 4.944 46.3049 3.984C47.2169 3.008 48.2409 2.24 49.3769 1.68C50.5289 1.12 51.7289 0.839999 52.9769 0.839999C54.5449 0.839999 55.7609 1.184 56.6249 1.872C57.5049 2.56 58.0969 3.456 58.4009 4.56L56.5049 5.712C56.2489 4.72 55.7689 3.984 55.0649 3.504C54.3609 3.024 53.5129 2.784 52.5209 2.784C51.5769 2.784 50.6809 3.016 49.8329 3.48C49.0009 3.944 48.2649 4.568 47.6249 5.352C46.9849 6.12 46.4809 6.984 46.1129 7.944C45.7449 8.904 45.5609 9.88 45.5609 10.872C45.5609 11.848 45.7369 12.736 46.0889 13.536C46.4409 14.336 46.9369 14.976 47.5769 15.456C48.2329 15.936 49.0009 16.176 49.8809 16.176C50.7929 16.176 51.7129 15.928 52.6409 15.432C53.5689 14.936 54.5129 14.176 55.4729 13.152L55.0169 15.384C54.0889 16.312 53.1529 17 52.2089 17.448C51.2649 17.896 50.2969 18.12 49.3049 18.12ZM55.6649 11.136H52.1849L52.5449 9.504H57.8249L56.0249 18H54.2009L55.6649 11.136ZM62.47 18.24C60.518 18.24 59.542 17.184 59.542 15.072C59.542 14.768 59.566 14.448 59.614 14.112C59.662 13.76 59.726 13.384 59.806 12.984L61.414 5.472H63.502L61.99 12.576C61.846 13.216 61.774 13.768 61.774 14.232C61.774 15.688 62.398 16.416 63.646 16.416C64.19 16.416 64.734 16.296 65.278 16.056C65.822 15.8 66.342 15.44 66.838 14.976C67.35 14.512 67.79 13.96 68.158 13.32L69.814 5.472H71.926L69.814 15.408C69.798 15.472 69.782 15.528 69.766 15.576C69.766 15.624 69.766 15.672 69.766 15.72C69.766 16.008 69.942 16.16 70.294 16.176L69.91 18C69.734 18.016 69.574 18.032 69.43 18.048C69.302 18.08 69.182 18.096 69.07 18.096C68.638 18.096 68.31 18 68.086 17.808C67.862 17.616 67.75 17.36 67.75 17.04C67.75 16.944 67.758 16.832 67.774 16.704C67.79 16.56 67.814 16.376 67.846 16.152C67.894 15.928 67.95 15.648 68.014 15.312C67.294 16.24 66.446 16.96 65.47 17.472C64.494 17.984 63.494 18.24 62.47 18.24ZM77.5936 18.24C76.6656 18.24 75.8656 18.008 75.1936 17.544C74.5216 17.064 74.0096 16.432 73.6576 15.648C73.3056 14.848 73.1296 13.976 73.1296 13.032C73.1296 12.024 73.3136 11.056 73.6816 10.128C74.0656 9.2 74.5776 8.376 75.2176 7.656C75.8736 6.92 76.6176 6.336 77.4496 5.904C78.2816 5.472 79.1536 5.256 80.0656 5.256C81.0256 5.256 81.8256 5.52 82.4656 6.048C83.1056 6.576 83.5536 7.216 83.8096 7.968L84.3616 5.472H86.4736L84.3616 15.408C84.3456 15.472 84.3296 15.528 84.3136 15.576C84.3136 15.624 84.3136 15.672 84.3136 15.72C84.3136 16.008 84.4896 16.16 84.8416 16.176L84.4576 18C84.2816 18.016 84.1216 18.032 83.9776 18.048C83.8496 18.08 83.7296 18.096 83.6176 18.096C83.1696 18.096 82.8256 17.992 82.5856 17.784C82.3616 17.576 82.2496 17.32 82.2496 17.016C82.2496 16.92 82.2576 16.808 82.2736 16.68C82.2896 16.552 82.3136 16.4 82.3456 16.224C82.3776 16.048 82.4176 15.856 82.4656 15.648C81.8416 16.448 81.0816 17.08 80.1856 17.544C79.3056 18.008 78.4416 18.24 77.5936 18.24ZM78.5056 16.416C78.8576 16.416 79.2336 16.344 79.6336 16.2C80.0496 16.056 80.4496 15.856 80.8336 15.6C81.2336 15.344 81.5936 15.048 81.9136 14.712C82.2336 14.36 82.4736 13.992 82.6336 13.608L83.3776 10.008C83.3136 9.464 83.1296 8.976 82.8256 8.544C82.5216 8.096 82.1456 7.744 81.6976 7.488C81.2656 7.216 80.8016 7.08 80.3056 7.08C79.6336 7.08 79.0016 7.248 78.4096 7.584C77.8176 7.904 77.2896 8.336 76.8256 8.88C76.3776 9.424 76.0176 10.032 75.7456 10.704C75.4896 11.36 75.3616 12.024 75.3616 12.696C75.3616 13.384 75.4896 14.008 75.7456 14.568C76.0016 15.128 76.3616 15.576 76.8256 15.912C77.3056 16.248 77.8656 16.416 78.5056 16.416ZM89.9403 5.472H91.9083L91.2843 8.376C91.8923 7.512 92.5803 6.808 93.3483 6.264C94.1323 5.72 94.9083 5.448 95.6763 5.448C95.8203 5.448 95.9403 5.456 96.0363 5.472C96.1483 5.472 96.2363 5.48 96.3003 5.496L95.9163 7.32C94.9243 7.336 93.9883 7.608 93.1083 8.136C92.2283 8.648 91.5323 9.36 91.0203 10.272L89.3883 18H87.2763L89.9403 5.472ZM100.422 18.24C99.4937 18.24 98.6937 18.008 98.0217 17.544C97.3497 17.064 96.8377 16.432 96.4857 15.648C96.1337 14.848 95.9577 13.976 95.9577 13.032C95.9577 12.024 96.1417 11.056 96.5097 10.128C96.8937 9.2 97.4057 8.376 98.0457 7.656C98.7017 6.92 99.4457 6.336 100.278 5.904C101.11 5.472 101.982 5.256 102.894 5.256C103.854 5.256 104.654 5.52 105.294 6.048C105.934 6.576 106.382 7.216 106.638 7.968L108.246 0.48H110.358L107.19 15.408C107.174 15.472 107.158 15.528 107.142 15.576C107.142 15.624 107.142 15.672 107.142 15.72C107.142 16.008 107.318 16.16 107.67 16.176L107.286 18C107.11 18.016 106.95 18.032 106.806 18.048C106.678 18.08 106.558 18.096 106.446 18.096C105.998 18.096 105.654 17.992 105.414 17.784C105.19 17.576 105.078 17.32 105.078 17.016C105.078 16.92 105.086 16.816 105.102 16.704C105.118 16.576 105.142 16.424 105.174 16.248C105.206 16.072 105.246 15.872 105.294 15.648C104.67 16.448 103.91 17.08 103.014 17.544C102.134 18.008 101.27 18.24 100.422 18.24ZM101.334 16.416C101.686 16.416 102.062 16.344 102.462 16.2C102.878 16.056 103.278 15.856 103.662 15.6C104.062 15.344 104.422 15.048 104.742 14.712C105.062 14.36 105.302 13.992 105.462 13.608L106.206 10.008C106.142 9.464 105.958 8.976 105.654 8.544C105.35 8.096 104.974 7.744 104.526 7.488C104.094 7.216 103.63 7.08 103.134 7.08C102.462 7.08 101.83 7.248 101.238 7.584C100.646 7.904 100.118 8.336 99.6537 8.88C99.2057 9.424 98.8457 10.032 98.5737 10.704C98.3177 11.36 98.1897 12.024 98.1897 12.696C98.1897 13.384 98.3177 14.008 98.5737 14.568C98.8297 15.128 99.1897 15.576 99.6537 15.912C100.134 16.248 100.694 16.416 101.334 16.416ZM123.808 17.4C123.68 17.448 123.48 17.536 123.208 17.664C122.936 17.792 122.608 17.904 122.224 18C121.84 18.096 121.424 18.144 120.976 18.144C120.512 18.144 120.072 18.056 119.656 17.88C119.256 17.704 118.936 17.44 118.696 17.088C118.456 16.72 118.336 16.272 118.336 15.744V6.792H116.608V5.496H118.336V1.272H119.968V5.496H122.848V6.792H119.968V15.288C120 15.736 120.16 16.072 120.448 16.296C120.752 16.52 121.096 16.632 121.48 16.632C121.928 16.632 122.336 16.56 122.704 16.416C123.072 16.256 123.296 16.144 123.376 16.08L123.808 17.4ZM125.847 18V5.496H127.479V18H125.847ZM125.847 2.88V0.48H127.479V2.88H125.847ZM141.585 18H139.953V11.016C139.953 9.544 139.737 8.472 139.305 7.8C138.873 7.112 138.193 6.768 137.265 6.768C136.625 6.768 135.993 6.928 135.369 7.248C134.745 7.552 134.193 7.976 133.713 8.52C133.249 9.048 132.913 9.656 132.705 10.344V18H131.073V5.496H132.561V8.328C132.897 7.72 133.337 7.192 133.881 6.744C134.425 6.28 135.041 5.92 135.729 5.664C136.417 5.408 137.129 5.28 137.865 5.28C138.553 5.28 139.137 5.408 139.617 5.664C140.097 5.92 140.481 6.288 140.769 6.768C141.057 7.232 141.265 7.8 141.393 8.472C141.521 9.128 141.585 9.864 141.585 10.68V18ZM150.948 17.4C150.82 17.448 150.62 17.536 150.348 17.664C150.076 17.792 149.748 17.904 149.364 18C148.98 18.096 148.564 18.144 148.116 18.144C147.652 18.144 147.212 18.056 146.796 17.88C146.396 17.704 146.076 17.44 145.836 17.088C145.596 16.72 145.476 16.272 145.476 15.744V6.792H143.748V5.496H145.476V1.272H147.108V5.496H149.988V6.792H147.108V15.288C147.14 15.736 147.3 16.072 147.588 16.296C147.892 16.52 148.236 16.632 148.62 16.632C149.068 16.632 149.476 16.56 149.844 16.416C150.212 16.256 150.436 16.144 150.516 16.08L150.948 17.4Z" fill="#5E2727"/>
</svg>
