<svg width="40" height="40" viewBox="0 0 40 40" fill="none" xmlns="http://www.w3.org/2000/svg">
<g id="Group 147">
<rect id="Rectangle 67" width="40" height="40" rx="20" fill="#5E2727" fill-opacity="0.1"/>
<path id="Vector" d="M19.6786 12C17.908 12.0021 16.2104 12.7064 14.9584 13.9584C13.7064 15.2104 13.0021 16.9079 13 18.6786C12.9979 20.1255 13.4705 21.5332 14.3454 22.6857C14.3454 22.6857 14.5276 22.9255 14.5573 22.9601L19.6786 29L24.8023 22.9571C24.829 22.9249 25.0117 22.6857 25.0117 22.6857L25.0123 22.6839C25.8868 21.5319 26.3592 20.1249 26.3572 18.6786C26.3551 16.9079 25.6508 15.2104 24.3987 13.9584C23.1467 12.7064 21.4492 12.0021 19.6786 12ZM19.6786 21.1071C19.1983 21.1071 18.7287 20.9647 18.3293 20.6979C17.93 20.431 17.6187 20.0517 17.4349 19.6079C17.2511 19.1642 17.203 18.6759 17.2967 18.2048C17.3904 17.7337 17.6217 17.301 17.9613 16.9613C18.301 16.6217 18.7337 16.3904 19.2048 16.2967C19.6759 16.203 20.1642 16.2511 20.608 16.4349C21.0517 16.6187 21.431 16.93 21.6979 17.3293C21.9647 17.7287 22.1072 18.1982 22.1072 18.6786C22.1063 19.3224 21.8502 19.9397 21.395 20.3949C20.9397 20.8502 20.3224 21.1063 19.6786 21.1071Z" fill="#5E2727"/>
</g>
</svg>
