<svg width="40" height="40" viewBox="0 0 40 40" fill="none" xmlns="http://www.w3.org/2000/svg">
<g id="Group 148">
<rect id="Rectangle 67" width="40" height="40" rx="20" fill="#5E2727" fill-opacity="0.1"/>
<path id="Vector" d="M26.625 14H13.625C12.7312 14 12.0081 14.7312 12.0081 15.625L12 25.375C12 26.2688 12.7312 27 13.625 27H26.625C27.5187 27 28.25 26.2688 28.25 25.375V15.625C28.25 14.7312 27.5187 14 26.625 14ZM26.3 17.4531L20.5556 21.0444C20.2956 21.2069 19.9544 21.2069 19.6944 21.0444L13.95 17.4531C13.8685 17.4074 13.7972 17.3456 13.7403 17.2715C13.6834 17.1974 13.6421 17.1125 13.619 17.022C13.5958 16.9315 13.5913 16.8372 13.6056 16.7449C13.62 16.6526 13.6529 16.5641 13.7024 16.4849C13.7519 16.4056 13.817 16.3373 13.8937 16.2839C13.9704 16.2306 14.0571 16.1934 14.1487 16.1745C14.2402 16.1556 14.3345 16.1555 14.4261 16.1742C14.5176 16.1929 14.6044 16.2299 14.6812 16.2831L20.125 19.6875L25.5687 16.2831C25.6456 16.2299 25.7324 16.1929 25.8239 16.1742C25.9155 16.1555 26.0098 16.1556 26.1013 16.1745C26.1929 16.1934 26.2796 16.2306 26.3563 16.2839C26.433 16.3373 26.4981 16.4056 26.5476 16.4849C26.5971 16.5641 26.63 16.6526 26.6444 16.7449C26.6587 16.8372 26.6542 16.9315 26.631 17.022C26.6079 17.1125 26.5666 17.1974 26.5097 17.2715C26.4528 17.3456 26.3815 17.4074 26.3 17.4531Z" fill="#5E2727"/>
</g>
</svg>
