<svg width="40" height="40" viewBox="0 0 40 40" fill="none" xmlns="http://www.w3.org/2000/svg">
<g id="Group 149">
<rect id="Rectangle 67" width="40" height="40" rx="20" fill="#5E2727" fill-opacity="0.1"/>
<g id="Group 435">
<path id="Vector" d="M24.1143 18.7695H22.9604C22.96 18.3106 22.7775 17.8706 22.453 17.5461C22.1285 17.2216 21.6885 17.0391 21.2296 17.0386V15.8848C21.9944 15.8857 22.7276 16.1899 23.2684 16.7307C23.8092 17.2715 24.1134 18.0047 24.1143 18.7695Z" fill="#5E2727"/>
<path id="Vector_2" d="M26.423 18.7694H25.2691C25.2679 17.6987 24.842 16.6722 24.0849 15.9151C23.3278 15.1579 22.3012 14.7321 21.2305 14.7308V13.5769C22.6072 13.5785 23.927 14.126 24.9005 15.0995C25.8739 16.0729 26.4215 17.3928 26.423 18.7694ZM21.9996 23.663L23.2919 22.3707C23.4649 22.1977 23.6849 22.0792 23.9245 22.03C24.1642 21.9807 24.4131 22.0029 24.6402 22.0938L26.2141 22.7238C26.4461 22.8166 26.645 22.9768 26.785 23.1837C26.9251 23.3906 26.9999 23.6347 26.9999 23.8846V26.7468C27.0003 26.9169 26.966 27.0853 26.8991 27.2417C26.8321 27.3981 26.734 27.5392 26.6106 27.6563C26.4873 27.7735 26.3413 27.8642 26.1817 27.923C26.022 27.9818 25.8521 28.0074 25.6822 27.9982C14.6499 27.3116 12.4218 17.9675 12.0081 14.3893C11.9881 14.2143 12.0053 14.0372 12.0586 13.8694C12.112 13.7016 12.2003 13.547 12.3177 13.4157C12.4351 13.2845 12.5789 13.1796 12.7397 13.108C12.9006 13.0363 13.0748 12.9995 13.2508 13H16.0623C16.3121 13 16.5563 13.0749 16.7632 13.2149C16.9701 13.355 17.1303 13.5538 17.2231 13.7858L17.8525 15.3597C17.9434 15.5869 17.9655 15.8357 17.9163 16.0754C17.8671 16.3151 17.7486 16.535 17.5756 16.708L16.2832 18.0004C16.2832 18.0004 16.9998 23.0382 21.9996 23.663Z" fill="#5E2727"/>
</g>
</g>
</svg>
