<svg width="40" height="40" viewBox="0 0 40 40" fill="none" xmlns="http://www.w3.org/2000/svg">
<g id="Group 148">
<rect id="Rectangle 67" width="40" height="40" rx="20" fill="#5E2727" fill-opacity="0.1"/>
<path id="Vector" d="M27 15.4234C26.4484 15.664 25.8558 15.8265 25.2328 15.8999C25.8756 15.5215 26.3565 14.9257 26.5858 14.224C25.9819 14.577 25.3209 14.8254 24.6317 14.9586C24.1682 14.4716 23.5543 14.1488 22.8852 14.0403C22.2162 13.9318 21.5295 14.0438 20.9317 14.3587C20.334 14.6737 19.8586 15.174 19.5794 15.7821C19.3002 16.3902 19.2328 17.0719 19.3877 17.7215C18.164 17.6611 16.9669 17.3481 15.8741 16.8029C14.7813 16.2577 13.8173 15.4924 13.0444 14.5568C12.7802 15.0054 12.6282 15.5255 12.6282 16.0794C12.628 16.578 12.7527 17.069 12.9915 17.5088C13.2303 17.9486 13.5757 18.3236 13.997 18.6005C13.5084 18.5852 13.0305 18.4552 12.6031 18.2215V18.2605C12.6031 18.9598 12.8489 19.6377 13.2989 20.1789C13.7489 20.7202 14.3753 21.0916 15.0719 21.2302C14.6185 21.3509 14.1433 21.3687 13.6819 21.2822C13.8785 21.8839 14.2613 22.4101 14.7768 22.7871C15.2923 23.1641 15.9148 23.373 16.5569 23.3846C15.4668 24.2268 14.1205 24.6836 12.7346 24.6816C12.4891 24.6816 12.2438 24.6675 12 24.6393C13.4068 25.5294 15.0444 26.0018 16.7168 26C22.3783 26 25.4733 21.3855 25.4733 17.3835C25.4733 17.2535 25.47 17.1221 25.4641 16.9921C26.0661 16.5637 26.5857 16.0332 26.9987 15.4254L27 15.4234Z" fill="#5E2727"/>
</g>
</svg>
