<svg width="47" height="56" viewBox="0 0 47 56" fill="none" xmlns="http://www.w3.org/2000/svg">
<g id="Group 1000004686">
<g id="Group">
<path id="Vector" d="M10.9668 19.1836H21.9339C22.5571 19.1836 23.1549 18.936 23.5956 18.4952C24.0363 18.0545 24.2839 17.4568 24.2839 16.8335C24.2839 16.2102 24.0363 15.6124 23.5956 15.1717C23.1549 14.731 22.5571 14.4834 21.9339 14.4834H10.9668C10.3435 14.4834 9.74575 14.731 9.30502 15.1717C8.8643 15.6124 8.6167 16.2102 8.6167 16.8335C8.6167 17.4568 8.8643 18.0545 9.30502 18.4952C9.74575 18.936 10.3435 19.1836 10.9668 19.1836ZM10.9668 16.0501H21.9339C22.1416 16.0501 22.3409 16.1327 22.4878 16.2796C22.6347 16.4265 22.7172 16.6257 22.7172 16.8335C22.7172 17.0412 22.6347 17.2405 22.4878 17.3874C22.3409 17.5343 22.1416 17.6168 21.9339 17.6168H10.9668C10.759 17.6168 10.5598 17.5343 10.4129 17.3874C10.266 17.2405 10.1834 17.0412 10.1834 16.8335C10.1834 16.6257 10.266 16.4265 10.4129 16.2796C10.5598 16.1327 10.759 16.0501 10.9668 16.0501Z" fill="#5E2727"/>
<path id="Vector_2" d="M46.3255 35.2017C46.4061 34.6206 46.3302 34.0285 46.1057 33.4865C45.8811 32.9445 45.5159 32.4723 45.0479 32.1185C44.7366 31.8839 44.514 31.5505 44.4165 31.173C44.2678 30.6064 43.9708 30.0896 43.5562 29.6757C43.1415 29.2619 42.6241 28.966 42.0572 28.8183C41.6821 28.7188 41.3512 28.4965 41.1172 28.187C40.7642 27.7176 40.2919 27.3514 39.7493 27.1267C39.2067 26.902 38.6138 26.8269 38.0324 26.9094C37.6461 26.9614 37.2534 26.8828 36.9169 26.6861C36.4112 26.3906 35.8361 26.2349 35.2504 26.2349C34.6647 26.2349 34.0895 26.3906 33.5838 26.6861C33.3746 26.8064 33.1424 26.8814 32.9023 26.9062V15.5878C32.9029 15.3825 32.8626 15.1791 32.7838 14.9895C32.705 14.7999 32.5892 14.6278 32.4433 14.4833L27.4167 9.4567C27.272 9.3112 27.0998 9.19591 26.9102 9.11751C26.7206 9.03911 26.5173 8.99917 26.3122 9.00001H2.35C1.72674 9.00001 1.12901 9.2476 0.688299 9.68831C0.247588 10.129 0 10.7268 0 11.35L0 50.5167C0 51.1399 0.247588 51.7377 0.688299 52.1784C1.12901 52.6191 1.72674 52.8667 2.35 52.8667H25.5249C25.5957 53.2782 25.8108 53.651 26.1317 53.9181C26.4526 54.1853 26.8581 54.3294 27.2757 54.3245H29.3249L30.4779 55.4791C30.8174 55.8127 31.2741 55.9997 31.7501 56C31.8628 55.9997 31.9753 55.9892 32.0861 55.9687C32.3709 55.9149 32.6386 55.7931 32.8663 55.6138C33.0941 55.4345 33.2752 55.2029 33.3943 54.9386L35.25 50.8472L37.1041 54.9339C37.2228 55.1992 37.4039 55.4319 37.6319 55.6121C37.86 55.7923 38.1283 55.9146 38.4139 55.9687C38.7025 56.0215 38.9997 56.0042 39.2802 55.9182C39.5608 55.8322 39.8165 55.6799 40.026 55.4744L41.1751 54.3245H43.2243C43.521 54.3245 43.8131 54.2509 44.0744 54.1103C44.3357 53.9698 44.5581 53.7666 44.7215 53.5189C44.885 53.2713 44.9845 52.987 45.0111 52.6915C45.0377 52.396 44.9906 52.0985 44.874 51.8256L42.7206 46.8906C43.1355 46.6802 43.501 46.3843 43.793 46.0223C44.0851 45.6603 44.2971 45.2404 44.415 44.7905C44.5146 44.4155 44.7368 44.0845 45.0464 43.8505C45.5144 43.4964 45.8796 43.0239 46.1042 42.4817C46.3287 41.9394 46.4046 41.3471 46.324 40.7657C46.2734 40.3793 46.3516 39.987 46.5464 39.6495C46.8423 39.1439 46.9983 38.5687 46.9983 37.9829C46.9983 37.3972 46.8423 36.822 46.5464 36.3164C46.3501 35.98 46.2723 35.5875 46.3255 35.2017ZM27.4167 11.6735L30.228 14.4833H28.2C27.9922 14.4833 27.793 14.4008 27.6461 14.2539C27.4992 14.107 27.4167 13.9078 27.4167 13.7V11.6735ZM25.8547 51.3H2.35C2.14225 51.3 1.943 51.2175 1.7961 51.0706C1.6492 50.9237 1.56667 50.7244 1.56667 50.5167V11.35C1.56667 11.1423 1.6492 10.943 1.7961 10.7961C1.943 10.6492 2.14225 10.5667 2.35 10.5667H25.85V13.7C25.85 14.3233 26.0976 14.921 26.5383 15.3617C26.979 15.8024 27.5767 16.05 28.2 16.05H31.3333V26.9548C30.557 27.1172 29.8653 27.5541 29.3852 28.1854C29.1505 28.4968 28.8172 28.7193 28.4397 28.8168C27.873 28.9655 27.3562 29.2625 26.9424 29.6772C26.5285 30.0918 26.2326 30.6092 26.085 31.1762C25.9854 31.5512 25.7631 31.8821 25.4536 32.1162C24.9855 32.4702 24.6204 32.9428 24.3958 33.485C24.1712 34.0273 24.0954 34.6196 24.176 35.2009C24.2291 35.5873 24.1504 35.9802 23.9528 36.3164C23.6569 36.822 23.5009 37.3972 23.5009 37.9829C23.5009 38.5687 23.6569 39.1439 23.9528 39.6495C24.1485 39.9855 24.226 40.3774 24.1729 40.7626C24.0923 41.3437 24.1682 41.9358 24.3928 42.4778C24.6173 43.0198 24.9825 43.492 25.4505 43.8458C25.7618 44.0805 25.9844 44.4138 26.0819 44.7913C26.2001 45.241 26.4123 45.6606 26.7044 46.0223C26.9966 46.384 27.3622 46.6797 27.777 46.8898L25.8547 51.3ZM31.9647 54.2955C31.9497 54.3301 31.9264 54.3604 31.8967 54.3837C31.867 54.407 31.8319 54.4224 31.7947 54.4286C31.7567 54.4365 31.7174 54.4349 31.6801 54.4241C31.6429 54.4133 31.6088 54.3937 31.5809 54.3667L30.3996 53.1847C30.1251 52.9115 29.7537 52.758 29.3664 52.7578H27.2757C27.2377 52.758 27.2003 52.7486 27.1669 52.7305C27.1335 52.7124 27.1052 52.6863 27.0845 52.6544C27.064 52.6254 27.0511 52.5916 27.0472 52.5563C27.0432 52.5209 27.0482 52.4851 27.0618 52.4523L29.1917 47.5659C29.2622 47.632 29.327 47.7041 29.3852 47.7813C29.738 48.2508 30.2103 48.617 30.7529 48.8418C31.2955 49.0665 31.8885 49.1415 32.4699 49.0589C32.8563 49.0061 33.2491 49.0847 33.5854 49.2821C33.7584 49.3804 33.9398 49.463 34.1275 49.5289L31.9647 54.2955ZM43.4343 52.4452C43.4492 52.4789 43.4552 52.5157 43.4518 52.5524C43.4484 52.589 43.4356 52.6241 43.4147 52.6544C43.394 52.6863 43.3657 52.7124 43.3323 52.7305C43.2989 52.7486 43.2615 52.758 43.2235 52.7578H41.1328C40.7463 52.7579 40.3755 52.9108 40.1012 53.1831L38.9262 54.3581C38.8982 54.3863 38.8636 54.4071 38.8256 54.4187C38.7876 54.4303 38.7474 54.4324 38.7084 54.4247C38.6704 54.4182 38.6348 54.4022 38.6047 54.378C38.5747 54.3539 38.5514 54.3225 38.5369 54.2868L36.3764 49.5242C36.5664 49.4579 36.7499 49.3746 36.9248 49.2751C37.2612 49.0804 37.6527 49.003 38.0379 49.055C38.619 49.1363 39.2114 49.0608 39.7535 48.8361C40.2956 48.6115 40.7678 48.2459 41.1211 47.7774C41.1789 47.7008 41.2431 47.6293 41.313 47.5635L43.4343 52.4452ZM45.1983 38.8552V38.8622C44.8269 39.5008 44.6794 40.2452 44.7792 40.9772C44.8213 41.2821 44.7813 41.5927 44.6634 41.877C44.5456 42.1613 44.3541 42.4091 44.1087 42.5948C43.517 43.0435 43.0933 43.6781 42.9055 44.3965C42.8274 44.6939 42.6717 44.9652 42.4542 45.1825C42.2367 45.3999 41.9653 45.5555 41.6678 45.6334C40.949 45.8197 40.3141 46.2434 39.8662 46.8358C39.6791 47.0796 39.4311 47.2698 39.1471 47.3874C38.8632 47.5049 38.5533 47.5457 38.2486 47.5055C37.5129 47.4048 36.7647 47.5535 36.1234 47.9277C35.8582 48.0841 35.5559 48.1666 35.248 48.1666C34.9401 48.1666 34.6379 48.0841 34.3727 47.9277C33.8662 47.6325 33.2904 47.4771 32.7042 47.4773C32.5535 47.4776 32.403 47.4881 32.2537 47.5087C31.9489 47.5495 31.6388 47.5089 31.3547 47.3912C31.0706 47.2734 30.8227 47.0826 30.6362 46.8381C30.1874 46.2465 29.5529 45.8227 28.8345 45.6349C28.5371 45.5569 28.2658 45.4011 28.0484 45.1836C27.8311 44.9661 27.6755 44.6947 27.5976 44.3973C27.4113 43.6784 26.9876 43.0435 26.3952 42.5956C26.1497 42.4099 25.9583 42.1622 25.8405 41.8778C25.7228 41.5935 25.6831 41.2828 25.7254 40.978C25.8262 40.2423 25.6776 39.4941 25.3032 38.8528C25.1468 38.5876 25.0643 38.2854 25.0643 37.9775C25.0643 37.6696 25.1468 37.3673 25.3032 37.1021C25.6747 36.4635 25.8222 35.7191 25.7223 34.9871C25.6803 34.6822 25.7202 34.3716 25.8381 34.0873C25.9559 33.803 26.1474 33.5552 26.3928 33.3695C26.9845 32.9208 27.4082 32.2863 27.596 31.5678C27.6741 31.2704 27.8299 30.9991 28.0474 30.7818C28.2649 30.5644 28.5362 30.4088 28.8337 30.331C29.5526 30.1446 30.1875 29.7209 30.6354 29.1285C30.8224 28.8846 31.0704 28.6943 31.3543 28.5767C31.6383 28.4591 31.9483 28.4185 32.253 28.4588C32.9886 28.559 33.7367 28.4104 34.3781 28.0366C34.6434 27.8802 34.9456 27.7977 35.2535 27.7977C35.5614 27.7977 35.8637 27.8802 36.1289 28.0366C36.7673 28.4084 37.5119 28.556 38.2439 28.4557C38.5487 28.4144 38.859 28.4548 39.1432 28.5726C39.4273 28.6904 39.6752 28.8814 39.8615 29.1262C40.3102 29.7179 40.9447 30.1416 41.6631 30.3294C41.9605 30.4075 42.2318 30.5632 42.4492 30.7807C42.6665 30.9982 42.8221 31.2696 42.9 31.5671C43.0864 32.2859 43.5101 32.9208 44.1024 33.3687C44.3479 33.5544 44.5394 33.8022 44.6571 34.0865C44.7748 34.3709 44.8146 34.6815 44.7722 34.9863C44.6714 35.722 44.8201 36.4702 45.1944 37.1115C45.3501 37.3755 45.4325 37.6763 45.4332 37.9828C45.4339 38.2893 45.3528 38.5905 45.1983 38.8552Z" fill="#5E2727"/>
<path id="Vector_3" d="M35.25 30.15C33.7007 30.15 32.1862 30.6094 30.898 31.4701C29.6099 32.3309 28.6058 33.5543 28.0129 34.9856C27.4201 36.417 27.2649 37.992 27.5672 39.5115C27.8694 41.031 28.6155 42.4268 29.711 43.5223C30.8065 44.6178 32.2023 45.3639 33.7218 45.6661C35.2413 45.9684 36.8163 45.8133 38.2477 45.2204C39.679 44.6275 40.9024 43.6235 41.7632 42.3353C42.6239 41.0471 43.0833 39.5326 43.0833 37.9833C43.0811 35.9065 42.255 33.9154 40.7865 32.4468C39.3179 30.9783 37.3268 30.1523 35.25 30.15ZM35.25 44.25C34.0106 44.25 32.799 43.8824 31.7684 43.1939C30.7379 42.5053 29.9347 41.5265 29.4604 40.3815C28.986 39.2364 28.8619 37.9764 29.1037 36.7607C29.3455 35.5451 29.9424 34.4285 30.8188 33.5521C31.6952 32.6757 32.8118 32.0789 34.0274 31.8371C35.243 31.5953 36.5031 31.7194 37.6481 32.1937C38.7932 32.668 39.772 33.4712 40.4605 34.5017C41.1491 35.5323 41.5167 36.7439 41.5167 37.9833C41.5148 39.6448 40.854 41.2376 39.6791 42.4125C38.5043 43.5873 36.9115 44.2481 35.25 44.25ZM5.48335 23.8833H27.4167C27.6244 23.8833 27.8237 23.8008 27.9706 23.6539C28.1175 23.507 28.2 23.3077 28.2 23.1C28.2 22.8922 28.1175 22.693 27.9706 22.5461C27.8237 22.3992 27.6244 22.3167 27.4167 22.3167H5.48335C5.27559 22.3167 5.07635 22.3992 4.92945 22.5461C4.78254 22.693 4.70001 22.8922 4.70001 23.1C4.70001 23.3077 4.78254 23.507 4.92945 23.6539C5.07635 23.8008 5.27559 23.8833 5.48335 23.8833ZM5.48335 27.8H25.85C26.0578 27.8 26.257 27.7175 26.4039 27.5705C26.5508 27.4236 26.6333 27.2244 26.6333 27.0166C26.6333 26.8089 26.5508 26.6097 26.4039 26.4627C26.257 26.3158 26.0578 26.2333 25.85 26.2333H5.48335C5.27559 26.2333 5.07635 26.3158 4.92945 26.4627C4.78254 26.6097 4.70001 26.8089 4.70001 27.0166C4.70001 27.2244 4.78254 27.4236 4.92945 27.5705C5.07635 27.7175 5.27559 27.8 5.48335 27.8ZM22.7167 30.15H17.2333C17.0256 30.15 16.8263 30.2325 16.6794 30.3794C16.5325 30.5263 16.45 30.7256 16.45 30.9333C16.45 31.1411 16.5325 31.3403 16.6794 31.4872C16.8263 31.6341 17.0256 31.7166 17.2333 31.7166H22.7167C22.9244 31.7166 23.1237 31.6341 23.2706 31.4872C23.4175 31.3403 23.5 31.1411 23.5 30.9333C23.5 30.7256 23.4175 30.5263 23.2706 30.3794C23.1237 30.2325 22.9244 30.15 22.7167 30.15ZM5.48335 31.7166H14.1C14.3078 31.7166 14.507 31.6341 14.6539 31.4872C14.8008 31.3403 14.8833 31.1411 14.8833 30.9333C14.8833 30.7256 14.8008 30.5263 14.6539 30.3794C14.507 30.2325 14.3078 30.15 14.1 30.15H5.48335C5.27559 30.15 5.07635 30.2325 4.92945 30.3794C4.78254 30.5263 4.70001 30.7256 4.70001 30.9333C4.70001 31.1411 4.78254 31.3403 4.92945 31.4872C5.07635 31.6341 5.27559 31.7166 5.48335 31.7166ZM10.1833 34.85C10.1833 35.0577 10.2659 35.257 10.4128 35.4039C10.5597 35.5508 10.7589 35.6333 10.9667 35.6333H21.15C21.3578 35.6333 21.557 35.5508 21.7039 35.4039C21.8508 35.257 21.9333 35.0577 21.9333 34.85C21.9333 34.6422 21.8508 34.443 21.7039 34.2961C21.557 34.1492 21.3578 34.0666 21.15 34.0666H10.9667C10.7589 34.0666 10.5597 34.1492 10.4128 34.2961C10.2659 34.443 10.1833 34.6422 10.1833 34.85ZM5.48335 35.6333H7.83334C8.0411 35.6333 8.24034 35.5508 8.38724 35.4039C8.53415 35.257 8.61668 35.0577 8.61668 34.85C8.61668 34.6422 8.53415 34.443 8.38724 34.2961C8.24034 34.1492 8.0411 34.0666 7.83334 34.0666H5.48335C5.27559 34.0666 5.07635 34.1492 4.92945 34.2961C4.78254 34.443 4.70001 34.6422 4.70001 34.85C4.70001 35.0577 4.78254 35.257 4.92945 35.4039C5.07635 35.5508 5.27559 35.6333 5.48335 35.6333ZM5.48335 39.55H21.15C21.3578 39.55 21.557 39.4674 21.7039 39.3205C21.8508 39.1736 21.9333 38.9744 21.9333 38.7666C21.9333 38.5589 21.8508 38.3596 21.7039 38.2127C21.557 38.0658 21.3578 37.9833 21.15 37.9833H5.48335C5.27559 37.9833 5.07635 38.0658 4.92945 38.2127C4.78254 38.3596 4.70001 38.5589 4.70001 38.7666C4.70001 38.9744 4.78254 39.1736 4.92945 39.3205C5.07635 39.4674 5.27559 39.55 5.48335 39.55ZM21.9333 41.9H5.48335C5.27559 41.9 5.07635 41.9825 4.92945 42.1294C4.78254 42.2763 4.70001 42.4756 4.70001 42.6833C4.70001 42.8911 4.78254 43.0903 4.92945 43.2372C5.07635 43.3841 5.27559 43.4666 5.48335 43.4666H21.9333C22.1411 43.4666 22.3403 43.3841 22.4872 43.2372C22.6341 43.0903 22.7167 42.8911 22.7167 42.6833C22.7167 42.4756 22.6341 42.2763 22.4872 42.1294C22.3403 41.9825 22.1411 41.9 21.9333 41.9ZM14.1 45.8166H5.48335C5.27559 45.8166 5.07635 45.8992 4.92945 46.0461C4.78254 46.193 4.70001 46.3922 4.70001 46.6C4.70001 46.8077 4.78254 47.007 4.92945 47.1539C5.07635 47.3008 5.27559 47.3833 5.48335 47.3833H14.1C14.3078 47.3833 14.507 47.3008 14.6539 47.1539C14.8008 47.007 14.8833 46.8077 14.8833 46.6C14.8833 46.3922 14.8008 46.193 14.6539 46.0461C14.507 45.8992 14.3078 45.8166 14.1 45.8166Z" fill="#5E2727"/>
<path id="Vector_4" d="M37.0465 35.8628L33.6835 39.2258L33.454 38.9963C33.3062 38.8536 33.1084 38.7746 32.903 38.7764C32.6976 38.7782 32.5011 38.8606 32.3558 39.0058C32.2106 39.1511 32.1282 39.3476 32.1264 39.5529C32.1246 39.7583 32.2036 39.9562 32.3463 40.104L33.1297 40.8873C33.2766 41.0342 33.4758 41.1167 33.6835 41.1167C33.8912 41.1167 34.0904 41.0342 34.2373 40.8873L38.1542 36.9705C38.2968 36.8228 38.3758 36.6249 38.374 36.4195C38.3722 36.2141 38.2899 36.0176 38.1446 35.8724C37.9994 35.7271 37.8029 35.6448 37.5975 35.643C37.3921 35.6412 37.1942 35.7201 37.0465 35.8628Z" fill="#5E2727"/>
</g>
<circle id="Ellipse 39" cx="21.5" cy="21.5" r="21.5" fill="#5E2727" fill-opacity="0.1"/>
</g>
</svg>
