<svg width="47" height="55" viewBox="0 0 47 55" fill="none" xmlns="http://www.w3.org/2000/svg">
<g id="Group 1000004687">
<g id="Group">
<path id="Vector" d="M46.0281 48.1383H16.5437C16.0892 45.9051 14.1107 44.2204 11.7462 44.2204C9.38173 44.2204 7.40318 45.9051 6.9487 48.1383H0.971892C-0.324943 48.1383 -0.322984 50.0972 0.971892 50.0972H6.9487C7.40318 52.3305 9.38173 54.0152 11.7462 54.0152C14.1107 54.0152 16.0892 52.3305 16.5437 50.0972H46.0281C47.3249 50.0972 47.323 48.1383 46.0281 48.1383ZM11.7462 52.0562C10.1261 52.0562 8.80776 50.7378 8.80776 49.1178C8.80776 47.4977 10.1261 46.1793 11.7462 46.1793C13.3663 46.1793 14.6847 47.4977 14.6847 49.1178C14.6847 50.7378 13.3663 52.0562 11.7462 52.0562ZM46.0281 29.5281H40.0513C39.5968 27.2949 37.6183 25.6102 35.2538 25.6102C32.8893 25.6102 30.9108 27.2949 30.4563 29.5281H0.971892C-0.324943 29.5281 -0.322984 31.4871 0.971892 31.4871H30.4563C30.9108 33.7203 32.8893 35.405 35.2538 35.405C37.6183 35.405 39.5968 33.7203 40.0513 31.4871H46.0281C47.3249 31.4871 47.323 29.5281 46.0281 29.5281ZM35.2538 33.446C33.6337 33.446 32.3153 32.1277 32.3153 30.5076C32.3153 28.8875 33.6337 27.5691 35.2538 27.5691C36.8739 27.5691 38.1922 28.8875 38.1922 30.5076C38.1922 32.1277 36.8739 33.446 35.2538 33.446ZM0.971892 12.8769H16.7435C17.198 15.1101 19.1766 16.7948 21.541 16.7948C23.9055 16.7948 25.8841 15.1101 26.3385 12.8769H46.0281C47.3249 12.8769 47.323 10.9179 46.0281 10.9179H26.3385C25.8841 8.68471 23.9055 7 21.541 7C19.1766 7 17.198 8.68471 16.7435 10.9179H0.971892C-0.324943 10.9179 -0.322984 12.8769 0.971892 12.8769ZM21.541 8.95897C23.1611 8.95897 24.4795 10.2773 24.4795 11.8974C24.4795 13.5175 23.1611 14.8359 21.541 14.8359C19.921 14.8359 18.6026 13.5175 18.6026 11.8974C18.6026 10.2773 19.921 8.95897 21.541 8.95897Z" fill="#5E2727"/>
</g>
<circle id="Ellipse 40" cx="21.5" cy="21.5" r="21.5" fill="#5E2727" fill-opacity="0.1"/>
</g>
</svg>
