<svg width="93" height="79" viewBox="0 0 93 79" fill="none" xmlns="http://www.w3.org/2000/svg">
<path d="M50.1737 70.5034H92.177V69.3014H49.8963L50.1737 70.5034ZM47.5767 69.3014H41.7772L41.6074 70.5034H47.854L47.5767 69.3014ZM14 69.3014V70.5034H30.1711L30.4483 69.3014H14ZM38.4292 69.3014H32.4914L32.214 70.5034H38.5991L38.4292 69.3014ZM21.2395 62.3996V26.8353H36.8607V35.7719C36.9588 35.4827 37.0948 35.2078 37.265 34.9543V26.8353H52.8865V62.3996H48.3038L48.3972 62.804H85.3421V21H20.8352V62.804H31.9477L32.0409 62.3996H21.2395ZM68.912 62.3996H53.2905V26.8353H68.912V62.3996ZM84.9376 62.3996H69.3163V26.8353H84.9376V62.3996ZM69.3163 21.4044H84.9376V26.4308H69.3163V21.4044ZM53.2905 21.4044H68.912V26.4308H53.2905V21.4044ZM37.265 21.4044H52.8865V26.4308H37.265V21.4044ZM21.2395 21.4044H36.8607V26.4308H21.2395V21.4044Z" fill="#5E2727"/>
<path d="M21.5091 27.1049V62.1301H32.1031L32.1965 61.7257H21.9134V27.5093H36.1868V38.0644L36.5911 37.721V27.1049H21.5091ZM52.6169 61.9279V39.3646C52.6169 39.3638 52.6165 39.3631 52.6164 39.3623C52.6162 39.3376 52.6116 39.3132 52.6026 39.2902L47.8326 27.2327C47.8241 27.2118 47.812 27.1925 47.797 27.1757C47.7923 27.1701 47.7865 27.166 47.7811 27.161C47.7704 27.1507 47.7586 27.1416 47.7458 27.1339C47.7392 27.1301 47.7326 27.1271 47.7256 27.1242C47.7116 27.118 47.697 27.1134 47.6819 27.1106C47.6752 27.1092 47.6689 27.1081 47.662 27.1075C47.6561 27.1071 47.6505 27.1048 47.6446 27.1048H37.7369C37.6833 27.1048 37.6319 27.1261 37.594 27.164C37.556 27.2019 37.5347 27.2533 37.5347 27.307V34.605C37.6585 34.4638 37.7938 34.333 37.9391 34.2141V27.5093H47.4382C47.419 27.6918 47.3504 27.9818 47.1224 28.2391C46.9211 28.4664 46.6333 28.6284 46.2658 28.7261C46.0256 28.79 45.7522 28.827 45.4436 28.8347C45.1103 28.8431 44.9691 29.0117 44.9093 29.1516C44.8098 29.3845 44.5718 29.9486 46.911 33.0862C47.3161 33.6294 47.7965 34.248 48.3703 34.9574C50.087 37.0797 51.8861 39.0813 52.2126 39.4425V61.7257H48.1483L48.2416 62.1301H52.4147C52.4683 62.1301 52.5198 62.1088 52.5577 62.0709C52.5956 62.033 52.6169 61.9815 52.6169 61.9279ZM39.4309 62.1301H40.7757L40.8329 61.7257H39.3737L39.4309 62.1301ZM45.8287 61.7257H42.8478L42.7906 62.1301H45.9219L45.8287 61.7257ZM45.9842 62.3997H42.7525L42.6953 62.804H46.0775L45.9842 62.3997ZM37.511 62.804L37.4539 62.3997H37.2923L37.2146 62.804H37.265H37.511ZM39.526 62.804H40.6805L40.7376 62.3997H39.4689L39.526 62.804ZM58.8345 36.3466L62.6522 32.5289L62.8432 32.7199L59.0255 36.5376L58.8345 36.3466ZM59.6829 37.1947L63.5008 33.3769L63.6917 33.5679L59.8739 37.3857L59.6829 37.1947ZM57.2063 38.819L65.1262 30.8991L65.317 31.0901L57.3971 39.01L57.2063 38.819ZM58.8315 55.0839L62.6493 51.266L62.8403 51.457L59.0224 55.2747L58.8315 55.0839ZM59.6809 55.9338L63.4988 52.1159L63.6898 52.3069L59.872 56.1247L59.6809 55.9338ZM57.2049 57.5576L65.1247 49.6377L65.3157 49.8286L57.3958 57.7485L57.2049 57.5576ZM74.9021 36.3465L78.7198 32.5287L78.9108 32.7197L75.0929 36.5375L74.9021 36.3465ZM75.7516 37.1964L79.5693 33.3786L79.7603 33.5695L75.9426 37.3873L75.7516 37.1964ZM73.2772 38.8249L81.1971 30.905L81.388 31.096L73.4681 39.0159L73.2772 38.8249ZM74.8999 55.0856L78.7176 51.2679L78.9086 51.4589L75.0909 55.2766L74.8999 55.0856ZM75.7486 55.9325L79.5665 52.1147L79.7574 52.3057L75.9396 56.1235L75.7486 55.9325ZM73.2745 57.5646L81.1944 49.6447L81.3854 49.8358L73.4655 57.7556L73.2745 57.5646Z" fill="#5E2727"/>
<path d="M50.2927 78.6738H51.5057L45.7913 53.909H44.5783L45.8975 59.6262H43.1444L43.0493 60.3001H46.0531L47.4719 66.4496H42.1802L42.085 67.1235H47.6275L49.0465 73.273H41.216L41.1207 73.9469H49.202L50.2927 78.6738ZM41.3956 78.9238L40.9065 75.4626L40.4269 78.8564L41.3956 78.9238ZM39.8991 68.3337L39.7852 67.5279H38.587L39.3 72.5731L39.8991 68.3337ZM37.6226 60.7044L38.3774 66.0452H39.5756L38.8208 60.7044H37.6226ZM37.9026 59.2218H38.6114L38.3108 57.0949L37.9026 59.2218ZM38.1766 53.5047H39.086L39.1908 52.8719L38.3356 53.4146C38.2839 53.4475 38.2305 53.4769 38.1766 53.5047Z" fill="#5E2727"/>
<path d="M45.8223 52.5163H43.3486L42.5716 57.2049C42.5265 57.4803 42.4247 57.7433 42.2726 57.9773C42.1205 58.2113 41.9215 58.4112 41.6881 58.5643L41.5381 59.6261H37.8248L37.6954 60.3H41.4428L40.5737 66.4495H32.7344L33.0381 65.1339C32.8593 64.7509 32.8059 64.3213 32.8855 63.9062L34.4156 55.9378L34.1641 54.997L28.7007 78.6737H29.9138L31.0045 73.9469H39.5142L38.8107 78.9238L40.0208 78.8397L43.6012 53.5046H45.8222L45.8223 52.5163ZM39.6093 73.273H31.16L32.579 67.1235H40.4783L39.6093 73.273ZM44.9801 44.8785C45.1524 44.8785 45.3222 44.8371 45.4753 44.758L49.384 42.7362C49.5098 42.6712 49.6215 42.582 49.7128 42.4737C49.8041 42.3655 49.8732 42.2403 49.9161 42.1054C49.9591 41.9704 49.975 41.8283 49.963 41.6872C49.951 41.5461 49.9114 41.4088 49.8463 41.283C49.5727 40.7542 48.9222 40.5467 48.3932 40.8207L45.0648 42.5424L42.7142 40.8925C42.7484 41.0812 42.7459 41.2797 42.6994 41.4781L42.2883 43.2283L44.3603 44.6826C44.5418 44.8101 44.7583 44.8785 44.9801 44.8785Z" fill="#5E2727"/>
<path d="M34.8302 55.9228L33.2827 63.9825C33.1142 64.8598 33.6888 65.7074 34.5661 65.8759C34.6692 65.8956 34.7717 65.905 34.8729 65.905C35.6331 65.905 36.3108 65.3666 36.4596 64.5924L38.077 56.1684C38.1228 55.9285 38.114 55.6816 38.0511 55.4458L37.4799 53.3094C37.7073 53.2771 37.9251 53.1966 38.1189 53.0732L41.0597 51.207L41.2894 51.5402L39.6491 52.5811L38.9812 56.6098C38.8353 57.4912 39.4313 58.3238 40.3125 58.47C40.402 58.4848 40.4909 58.4919 40.579 58.4919C41.3557 58.4919 42.0414 57.9304 42.1726 57.1387L43.5205 49.0068C43.5222 48.9961 43.5225 48.9856 43.5241 48.9751C43.5282 48.9468 43.5311 48.9185 43.5338 48.8902C43.5361 48.8649 43.5384 48.8395 43.5396 48.8143C43.5408 48.7875 43.5407 48.7607 43.5406 48.7339C43.5406 48.7073 43.5406 48.6807 43.5391 48.6543C43.5377 48.6287 43.535 48.6034 43.5323 48.5778C43.5296 48.5508 43.5269 48.5239 43.5229 48.497C43.519 48.472 43.5137 48.4472 43.5088 48.4221C43.5034 48.3955 43.4981 48.369 43.4915 48.3427C43.4852 48.318 43.4775 48.2938 43.4699 48.2692C43.4618 48.2432 43.454 48.2172 43.4447 48.1916C43.4362 48.1682 43.4264 48.1453 43.4168 48.1221C43.4061 48.0958 43.3947 48.0698 43.3826 48.0442C43.3722 48.0226 43.3609 48.0014 43.3494 47.9803C43.3353 47.9539 43.3209 47.9277 43.3054 47.9022C43.3 47.8935 43.2959 47.8844 43.2904 47.8758C43.2827 47.8638 43.274 47.8532 43.2661 47.8414C43.2356 47.7958 43.2028 47.7518 43.1678 47.7095C43.0668 47.588 42.9486 47.4819 42.817 47.3945C42.7948 47.3797 42.772 47.3658 42.7491 47.3522C42.7275 47.3395 42.706 47.3271 42.684 47.3154C42.6378 47.2909 42.5905 47.2687 42.5422 47.2488C42.4929 47.2285 42.4425 47.2106 42.3914 47.1953C42.3393 47.1796 42.2864 47.1666 42.2329 47.1562C42.2181 47.1535 42.204 47.1492 42.1892 47.1468C42.1784 47.145 42.1679 47.1446 42.1571 47.1431C42.1287 47.1391 42.1001 47.136 42.0714 47.1334C42.0472 47.1311 42.0228 47.1288 41.9986 47.1278C41.9694 47.1266 41.9402 47.1263 41.911 47.1267C41.8873 47.127 41.8639 47.1268 41.8404 47.128C41.8103 47.1297 41.7803 47.1328 41.7502 47.1361C41.7283 47.1384 41.7063 47.1404 41.6845 47.1438C41.6532 47.1484 41.622 47.1549 41.5909 47.1615C41.571 47.1656 41.551 47.1695 41.5313 47.1744C41.4995 47.1825 41.468 47.1922 41.4363 47.2023C41.4179 47.2081 41.3994 47.2136 41.3812 47.2202C41.3503 47.2315 41.3197 47.2437 41.2895 47.2569C41.2712 47.265 41.2526 47.2725 41.2345 47.2812C41.206 47.2946 41.1779 47.3096 41.1496 47.325C41.1308 47.3355 41.1116 47.346 41.093 47.3572C41.0814 47.364 41.0696 47.3696 41.0581 47.3768L40.8712 47.4955L42.3057 41.3857C42.3369 41.2525 42.3417 41.1145 42.3196 40.9795C42.2975 40.8445 42.2491 40.7152 42.177 40.5989C42.105 40.4827 42.0107 40.3817 41.8997 40.3019C41.7886 40.222 41.6629 40.1648 41.5297 40.1336L41.3351 40.0879C40.9452 40.2374 40.5312 40.3141 40.1137 40.3143C38.7109 40.3143 37.4615 39.4753 36.9309 38.1764C36.9092 38.1231 36.8888 38.0693 36.8697 38.015L35.5883 39.1034C35.499 39.1794 35.4228 39.2696 35.3627 39.3703C35.29 39.4761 35.2376 39.5944 35.2081 39.7194L33.1378 48.536C33.0343 48.8387 33.0233 49.1655 33.1064 49.4745L34.8302 55.9228ZM43.6342 33.0859C44.1859 33.0859 44.4986 33.231 44.675 33.4061L45.7432 32.0709C45.158 31.2199 44.7656 30.5964 44.5737 30.0807L41.9191 33.399C42.549 33.1975 43.1512 33.0859 43.6342 33.0859Z" fill="#5E2727"/>
<path d="M37.3053 38.0233C37.9388 39.5739 39.7091 40.3173 41.2595 39.6838C42.7359 39.0808 43.4794 37.4473 43.0006 35.9539C42.884 35.9937 42.7662 36.0301 42.6475 36.0631C41.9114 36.265 41.2157 36.3166 40.6989 36.2378C41.1403 36.1545 41.6378 36.0082 42.1507 35.7988C43.6323 35.1936 44.6699 34.3024 44.4683 33.8087C44.2665 33.3147 42.9017 33.405 41.4201 34.0103C41.3695 34.031 41.3207 34.0528 41.2709 34.0742C40.5334 33.7681 39.7047 33.7662 38.9659 34.0691C37.4154 34.7023 36.6718 36.4728 37.3053 38.0233ZM24.3783 73.606H23.7308C23.5637 72.9292 22.5567 72.4233 21.2981 72.4233C20.0395 72.4233 19.0326 72.9292 18.8654 73.6062H18.2181C16.8059 73.6062 15.6506 74.7615 15.6506 76.1737V77.7032C15.6506 79.1153 16.8059 78.9975 18.2181 78.9975H24.3783C25.7905 78.9975 26.9458 79.1153 26.9458 77.7032V76.1737C26.9458 74.7615 25.7905 73.606 24.3783 73.606ZM23.302 73.606H19.2943C19.492 73.2067 20.2591 72.8277 21.2981 72.8277C22.3372 72.8277 23.1042 73.2067 23.302 73.6062V73.606ZM18.8635 74.6135V74.2429H19.2679V74.6135H23.3284V74.2429H23.7327V74.6135H24.039V74.928H18.5576V74.6135H18.8635ZM18.8635 77.5339V75.2763H19.2679V77.5339H18.8635ZM23.3282 77.5339V75.2763H23.7326V77.5339H23.3282Z" fill="#5E2727"/>
<circle cx="30" cy="30" r="30" fill="#5E2727" fill-opacity="0.1"/>
</svg>
