<svg width="79" height="83" viewBox="0 0 79 83" fill="none" xmlns="http://www.w3.org/2000/svg">
<circle cx="30" cy="30" r="30" fill="#5E2727" fill-opacity="0.1"/>
<path d="M42.2634 54.4671V66.2112L43.8581 67.6372C43.9747 67.7413 44.0825 67.8535 44.1815 67.972V54.2089L42.2634 54.4671Z" fill="#5E2727"/>
<path d="M78.3449 75.7187H70.4625V25.2825H78.3449V23H14V25.0134H15.982V75.9262H14V77.9396H20.0431L19.7581 75.7187H17.8997V25.2825H42.2634V43.5457C42.5575 44.3079 42.6626 45.13 42.5696 45.9417C42.5211 46.3712 42.4182 46.7929 42.2634 47.1964V49.823L44.1815 49.5648V25.2825H68.5448V75.7187H46.452L47.0109 77.9396H78.3447V75.7187H78.3449Z" fill="#5E2727"/>
<path d="M39.9262 75.7188H37.8833L37.4115 77.9398H40.4852L39.9262 75.7188ZM31.8056 75.7188H30.0089L29.7239 77.9398H31.3339L31.8056 75.7188ZM29.6835 72.2282C29.6888 72.2052 29.6925 72.182 29.6925 72.1588C29.6925 71.507 27.5395 70.9786 24.8836 70.9786C22.2278 70.9786 20.0747 71.507 20.0747 72.1588C20.0747 72.1822 20.0782 72.2052 20.0838 72.2282L20.7617 77.5111C20.8729 77.5213 20.9849 77.5282 21.0973 77.5282C22.8999 77.5282 24.4232 76.1793 24.6945 74.4395C24.6397 74.3998 24.595 74.3476 24.5642 74.2873C24.5334 74.2269 24.5172 74.1602 24.5171 74.0924C24.5171 73.978 24.5626 73.8682 24.6435 73.7873C24.7244 73.7064 24.8342 73.6609 24.9486 73.6609C25.0631 73.6609 25.1728 73.7064 25.2537 73.7873C25.3347 73.8682 25.3801 73.978 25.3801 74.0924C25.3801 74.2875 25.2497 74.4505 25.0721 74.5038C24.7697 76.424 23.0875 77.9118 21.0973 77.9118C21.002 77.9118 20.9066 77.9081 20.8117 77.9014L21.2561 81.3637C21.2561 81.7785 22.8802 82.115 24.8838 82.115C26.8874 82.115 28.5116 81.7786 28.5116 81.3638L29.6835 72.2282ZM24.8836 71.4972C27.0336 71.4972 28.7764 71.8176 28.7764 72.2129C28.7764 72.6081 27.0336 72.9286 24.8836 72.9286C22.7337 72.9286 20.9908 72.6081 20.9908 72.2129C20.9908 71.8176 22.7337 71.4972 24.8836 71.4972Z" fill="#5E2727"/>
<path d="M41.8095 45.8453C42.0764 43.4773 40.373 41.3413 38.005 41.0744C35.6369 40.8075 33.5009 42.5109 33.234 44.8789C32.9672 47.247 34.6705 49.383 37.0385 49.6499C39.4066 49.9167 41.5426 48.2134 41.8095 45.8453Z" fill="#5E2727"/>
<path d="M52.6931 63.0085L53.0333 62.6685L58.4652 68.1004L58.1252 68.4405L52.6931 63.0085ZM54.2065 61.4958L54.5465 61.1558L59.9785 66.5877L59.6385 66.9278L54.2065 61.4958ZM50.5318 59.334L50.8718 58.994L62.1403 70.2625L61.8001 70.6023L50.5318 59.334ZM52.6969 32.7688L53.0369 32.4287L58.4689 37.8607L58.1288 38.2009L52.6969 32.7688ZM54.2098 31.2553L54.5498 30.9153L59.9819 36.3472L59.6417 36.6872L54.2098 31.2553ZM50.5349 29.0935L50.8751 28.7534L62.1436 40.0218L61.8034 40.3618L50.5349 29.0935ZM22.6552 31.7528L22.9953 31.4127L28.427 36.8447L28.087 37.1847L22.6552 31.7528ZM24.1685 30.2397L24.5085 29.8997L29.9405 35.3316L29.6005 35.6716L24.1685 30.2397ZM20.4936 28.078L20.8336 27.738L32.1021 39.0065L31.7621 39.3465L20.4936 28.078Z" fill="#5E2727"/>
<path d="M51.8869 49.7743L52.448 48.1907L53.5942 47.1096C53.7408 46.9714 53.8587 46.8057 53.9412 46.6219C54.0237 46.4381 54.0692 46.2398 54.0751 46.0384C54.081 45.837 54.0472 45.6364 53.9756 45.4481C53.9039 45.2598 53.7959 45.0875 53.6577 44.9409C53.6439 44.9261 53.6287 44.9135 53.6143 44.8993L53.8872 44.1289L54.7013 41.8319L58.6779 43.241L59.0302 42.2469L50.3538 39.1722L50.0015 40.1663L53.9783 41.5755L53.194 43.7889L52.9376 44.5127C52.6851 44.4448 52.4194 44.4426 52.1658 44.5064C51.9122 44.5703 51.6792 44.6979 51.4889 44.8772L45.9509 50.0999L39.4689 50.9725L32.6084 49.1597C32.3306 49.0861 32.0373 49.0953 31.7646 49.1861C31.5443 49.2243 31.3351 49.3104 31.1517 49.4383L29.9947 50.2476L27.5878 51.9314C27.3173 52.1206 27.1151 52.392 27.0111 52.7053C26.9072 53.0187 26.907 53.3571 27.0108 53.6705L28.1672 57.1639L28.6084 58.4967L28.1188 60.3498L27.7081 61.9043L27.4465 62.8944C27.4188 63.0001 27.4029 63.1087 27.3991 63.2179C26.9797 64.1461 27.1866 65.2764 27.9863 65.9913L33.4269 70.8558L31.638 79.2771C31.363 80.5721 32.1898 81.8451 33.4848 82.1201C33.6528 82.1558 33.8202 82.1728 33.9853 82.1728C35.093 82.1726 36.0883 81.4004 36.3278 80.2733L38.3483 70.7611L33.3814 66.32L33.8074 66.1091L39.6041 71.2923L41.8859 80.3602C42.1596 81.4478 43.1361 82.1728 44.2089 82.1728C44.4026 82.1728 44.5993 82.1493 44.7957 82.0998C46.0796 81.7766 46.8584 80.4739 46.5355 79.19L44.0744 69.4097C43.9577 68.9453 43.7044 68.5267 43.3474 68.2076L38.0285 63.4519L40.5462 53.9231L46.8496 53.0745C47.1676 53.0316 47.4641 52.8901 47.6976 52.6701L51.226 49.3424L51.008 49.9576L51.5048 50.1337L51.7309 50.2139L51.8869 49.7743ZM50.4654 38.8537L50.6442 38.3487L59.3245 41.4232L59.1456 41.9281L50.4654 38.8537Z" fill="#5E2727"/>
</svg>
